<svg xmlns="http://www.w3.org/2000/svg" xmlns:xlink="http://www.w3.org/1999/xlink" width="480" zoomAndPan="magnify" viewBox="0 0 360 149.999998" height="200" preserveAspectRatio="xMidYMid meet" version="1.0"><defs><g/><clipPath id="ea8a0e76fb"><path d="M 68 132 L 74 132 L 74 133.601562 L 68 133.601562 Z M 68 132 " clip-rule="nonzero"/></clipPath><clipPath id="49442e9dc1"><path d="M 73 132 L 77 132 L 77 133.601562 L 73 133.601562 Z M 73 132 " clip-rule="nonzero"/></clipPath><clipPath id="75604ea41e"><path d="M 79 133 L 82 133 L 82 133.601562 L 79 133.601562 Z M 79 133 " clip-rule="nonzero"/></clipPath><clipPath id="5518270ffe"><path d="M 47 16.601562 L 51 16.601562 L 51 19 L 47 19 Z M 47 16.601562 " clip-rule="nonzero"/></clipPath><clipPath id="a906391157"><path d="M 107 99 L 108.75 99 L 108.75 102 L 107 102 Z M 107 99 " clip-rule="nonzero"/></clipPath></defs><path fill="#38b6ff" d="M 35.535156 116.578125 C 34.457031 115.46875 32.566406 113.636719 31.789062 113.148438 C 31.746094 113.125 31.683594 113.109375 31.636719 113.109375 C 31.648438 113.632812 36.558594 118.390625 37.109375 118.40625 C 37.09375 118.214844 36.246094 117.308594 35.535156 116.578125 " fill-opacity="1" fill-rule="nonzero"/><path fill="#38b6ff" d="M 41.910156 121.183594 C 40.777344 120.214844 38.71875 118.628906 37.703125 118.234375 C 37.628906 118.214844 37.515625 118.183594 37.476562 118.21875 C 37.28125 118.398438 38.570312 119.613281 39.898438 120.636719 C 41.601562 121.945312 43.152344 122.902344 43.433594 122.804688 C 43.523438 122.601562 42.519531 121.703125 41.910156 121.183594 " fill-opacity="1" fill-rule="nonzero"/><path fill="#38b6ff" d="M 20.691406 96.402344 C 20.664062 96.378906 20.621094 96.351562 20.585938 96.351562 C 20.578125 97.039062 23.855469 103.308594 24.242188 103.339844 C 24.246094 103.0625 23.589844 101.691406 23.199219 100.894531 C 22.519531 99.507812 21.234375 97.0625 20.691406 96.402344 " fill-opacity="1" fill-rule="nonzero"/><path fill="#38b6ff" d="M 24.773438 103.132812 C 24.703125 103.097656 24.621094 103.058594 24.578125 103.101562 C 24.152344 103.535156 28 109.226562 28.914062 109.511719 C 29.265625 109.621094 28.882812 108.675781 27.980469 107.214844 C 27.136719 105.847656 25.582031 103.675781 24.773438 103.132812 " fill-opacity="1" fill-rule="nonzero"/><path fill="#38b6ff" d="M 33.738281 112.855469 C 32.804688 111.609375 31.007812 109.660156 29.929688 109.21875 C 29.839844 109.195312 29.71875 109.164062 29.648438 109.210938 C 28.90625 109.726562 33.246094 114.804688 34.589844 114.992188 C 35.082031 115.0625 34.730469 114.183594 33.738281 112.855469 " fill-opacity="1" fill-rule="nonzero"/><path fill="#38b6ff" d="M 17.800781 89.085938 C 17.839844 89.222656 17.90625 89.421875 17.992188 89.664062 C 17.925781 89.46875 17.859375 89.269531 17.796875 89.082031 L 17.800781 89.085938 " fill-opacity="1" fill-rule="nonzero"/><path fill="#38b6ff" d="M 22.574219 98.71875 C 23.089844 99.011719 23 97.851562 22.367188 96.019531 C 21.816406 94.441406 20.675781 91.957031 19.859375 91.375 C 19.808594 91.351562 19.742188 91.320312 19.6875 91.328125 C 18.835938 91.492188 21.398438 98.054688 22.574219 98.71875 " fill-opacity="1" fill-rule="nonzero"/><path fill="#38b6ff" d="M 27.367188 105.15625 C 28.074219 105.390625 28.023438 104.28125 27.25 102.578125 C 26.582031 101.105469 25.136719 98.8125 24.007812 98.324219 C 23.910156 98.300781 23.777344 98.269531 23.679688 98.332031 C 22.695312 98.953125 25.761719 104.628906 27.367188 105.15625 " fill-opacity="1" fill-rule="nonzero"/><path fill="#38b6ff" d="M 32.996094 110.886719 C 34.023438 111.226562 34.101562 110.144531 33.171875 108.480469 C 32.296875 106.90625 30.5625 104.996094 29.292969 104.652344 C 29.171875 104.640625 29.003906 104.621094 28.875 104.6875 C 27.660156 105.328125 30.898438 110.195312 32.996094 110.886719 " fill-opacity="1" fill-rule="nonzero"/><path fill="#38b6ff" d="M 16.972656 83.914062 C 16.945312 83.890625 16.902344 83.863281 16.871094 83.851562 C 16.355469 84.171875 18.375 91.53125 19.03125 91.726562 C 19.289062 91.5625 18.8125 89.492188 18.660156 88.863281 C 18.285156 87.316406 17.496094 84.605469 16.972656 83.914062 " fill-opacity="1" fill-rule="nonzero"/><path fill="#38b6ff" d="M 22.136719 93.539062 C 22.964844 94 23.265625 92.671875 22.808594 90.585938 C 22.445312 88.925781 21.429688 86.359375 20.320312 85.855469 C 20.246094 85.839844 20.140625 85.820312 20.066406 85.835938 C 18.636719 86.148438 20.359375 92.554688 22.136719 93.539062 " fill-opacity="1" fill-rule="nonzero"/><path fill="#38b6ff" d="M 26.808594 100.136719 C 27.996094 100.738281 28.464844 99.4375 27.808594 97.347656 C 27.3125 95.765625 25.96875 93.355469 24.523438 92.945312 C 24.429688 92.9375 24.296875 92.921875 24.203125 92.945312 C 22.511719 93.347656 24.558594 98.992188 26.808594 100.136719 " fill-opacity="1" fill-rule="nonzero"/><path fill="#38b6ff" d="M 32.46875 106.085938 C 34.03125 106.808594 34.683594 105.558594 33.84375 103.46875 C 33.246094 101.992188 31.640625 99.777344 29.941406 99.484375 C 29.789062 99.480469 29.578125 99.476562 29.386719 99.566406 C 27.804688 100.316406 29.992188 104.949219 32.46875 106.085938 " fill-opacity="1" fill-rule="nonzero"/><path fill="#38b6ff" d="M 18.496094 86.296875 C 19.082031 86.820312 19.347656 85.511719 19.089844 83.382812 C 18.890625 81.71875 18.257812 79.117188 17.476562 78.535156 C 17.425781 78.515625 17.351562 78.484375 17.296875 78.496094 C 16.238281 78.683594 17.234375 85.171875 18.496094 86.296875 " fill-opacity="1" fill-rule="nonzero"/><path fill="#38b6ff" d="M 24.542969 84.714844 C 24.363281 83.039062 23.476562 80.496094 22.082031 80.085938 C 21.980469 80.078125 21.84375 80.066406 21.75 80.089844 C 20.023438 80.492188 20.75 86.167969 22.71875 87.675781 C 23.925781 88.601562 24.8125 87.164062 24.542969 84.714844 " fill-opacity="1" fill-rule="nonzero"/><path fill="#38b6ff" d="M 29.5625 91.5 C 29.230469 89.828125 28 87.335938 26.308594 87.027344 C 26.1875 87.027344 26.023438 87.023438 25.90625 87.054688 C 23.945312 87.558594 24.976562 92.78125 27.363281 94.40625 C 28.988281 95.515625 30.078125 94.074219 29.5625 91.5 " fill-opacity="1" fill-rule="nonzero"/><path fill="#38b6ff" d="M 35.582031 97.808594 C 35.136719 96.214844 33.644531 93.878906 31.722656 93.679688 C 31.585938 93.6875 31.402344 93.695312 31.269531 93.734375 C 29.117188 94.347656 30.527344 99.296875 33.253906 100.703125 C 35.105469 101.65625 36.257812 100.222656 35.582031 97.808594 " fill-opacity="1" fill-rule="nonzero"/><path fill="#38b6ff" d="M 19.3125 80.636719 C 20.144531 81.355469 20.847656 79.976562 20.8125 77.691406 C 20.789062 76.023438 20.285156 73.460938 19.238281 72.972656 C 19.164062 72.957031 19.058594 72.9375 18.980469 72.953125 C 17.492188 73.261719 17.75 79.296875 19.3125 80.636719 " fill-opacity="1" fill-rule="nonzero"/><path fill="#38b6ff" d="M 27.425781 78.585938 C 27.394531 76.902344 26.625 74.402344 25.015625 74.101562 C 24.957031 74.101562 24.875 74.09375 24.8125 74.097656 C 22.679688 74.25 22.441406 79.367188 24.472656 81.398438 C 25.9375 82.863281 27.480469 81.390625 27.425781 78.585938 " fill-opacity="1" fill-rule="nonzero"/><path fill="#38b6ff" d="M 32.332031 85.171875 C 32.152344 83.484375 31.054688 81.015625 29.183594 80.816406 C 29.113281 80.816406 29.019531 80.816406 28.949219 80.824219 C 26.535156 81.113281 26.730469 86.273438 29.226562 88.183594 C 31.003906 89.546875 32.628906 87.972656 32.332031 85.171875 " fill-opacity="1" fill-rule="nonzero"/><path fill="#38b6ff" d="M 38.273438 91.511719 C 37.960938 89.828125 36.578125 87.410156 34.480469 87.3125 C 34.402344 87.316406 34.296875 87.320312 34.21875 87.332031 C 31.742188 87.726562 32.101562 92.515625 34.757812 94.453125 C 36.90625 96.019531 38.808594 94.425781 38.273438 91.511719 " fill-opacity="1" fill-rule="nonzero"/><path fill="#38b6ff" d="M 21.164062 74.609375 C 22.222656 75.835938 23.503906 74.417969 23.703125 71.800781 C 23.828125 70.144531 23.425781 67.636719 22.136719 67.242188 C 22.089844 67.238281 22.023438 67.230469 21.972656 67.230469 C 20.183594 67.261719 19.578125 72.777344 21.164062 74.609375 " fill-opacity="1" fill-rule="nonzero"/><path fill="#38b6ff" d="M 27.390625 75.164062 C 28.898438 76.871094 30.929688 75.332031 31.074219 72.371094 C 31.15625 70.699219 30.488281 68.25 28.75 68.054688 C 26.140625 68.164062 25.597656 73.136719 27.390625 75.164062 " fill-opacity="1" fill-rule="nonzero"/><path fill="#38b6ff" d="M 35.875 78.734375 C 35.808594 77.039062 34.820312 74.613281 32.816406 74.507812 C 29.886719 74.761719 29.765625 79.796875 31.988281 81.742188 C 33.84375 83.363281 35.984375 81.703125 35.875 78.734375 " fill-opacity="1" fill-rule="nonzero"/><path fill="#38b6ff" d="M 37.371094 87.871094 C 39.589844 89.78125 42.058594 88.082031 41.699219 84.894531 C 41.507812 83.195312 40.234375 80.800781 38.003906 80.792969 C 34.964844 81.167969 34.984375 85.816406 37.371094 87.871094 " fill-opacity="1" fill-rule="nonzero"/><path fill="#38b6ff" d="M 27.445312 65.867188 C 27.683594 64.226562 27.371094 61.785156 25.921875 61.5 C 23.613281 61.46875 22.667969 66.792969 24.152344 68.644531 C 25.320312 70.09375 27.042969 68.640625 27.445312 65.867188 " fill-opacity="1" fill-rule="nonzero"/><path fill="#38b6ff" d="M 46.265625 116.15625 C 48.085938 116.613281 48.808594 115.46875 47.8125 113.699219 C 47.105469 112.445312 45.214844 110.652344 43.214844 110.582031 C 42.945312 110.601562 42.664062 110.625 42.390625 110.816406 C 40.84375 111.890625 43.417969 115.433594 46.265625 116.15625 " fill-opacity="1" fill-rule="nonzero"/><path fill="#38b6ff" d="M 49.589844 108.523438 C 49.023438 107.140625 47.226562 105.199219 45.003906 105.214844 C 44.796875 105.238281 44.515625 105.269531 44.25 105.398438 C 42.222656 106.355469 43.820312 110.046875 46.765625 111.203125 C 49.035156 112.09375 50.484375 110.714844 49.589844 108.523438 " fill-opacity="1" fill-rule="nonzero"/><path fill="#38b6ff" d="M 52.277344 102.667969 C 51.832031 101.164062 50.117188 99.085938 47.703125 99.1875 C 47.613281 99.199219 47.496094 99.214844 47.410156 99.230469 C 44.75 99.792969 45.238281 103.738281 48.175781 105.4375 C 50.78125 106.941406 53.078125 105.390625 52.277344 102.667969 " fill-opacity="1" fill-rule="nonzero"/><path fill="#38b6ff" d="M 51.15625 92.53125 C 51.0625 92.550781 50.9375 92.566406 50.84375 92.589844 C 47.972656 93.28125 48.132812 97.558594 51.097656 99.316406 C 53.707031 100.867188 56.335938 99.070312 55.710938 96.167969 C 55.363281 94.550781 53.71875 92.347656 51.15625 92.53125 " fill-opacity="1" fill-rule="nonzero"/><path fill="#38b6ff" d="M 46.703125 120.324219 C 47.949219 120.488281 48.105469 119.546875 47.054688 118.179688 C 46.195312 117.0625 44.199219 115.421875 42.460938 115.269531 C 42.226562 115.277344 41.984375 115.28125 41.785156 115.4375 C 40.554688 116.386719 44.1875 120 46.703125 120.324219 " fill-opacity="1" fill-rule="nonzero"/><path fill="#38b6ff" d="M 48.066406 123.746094 C 48.761719 123.730469 48.492188 123.015625 47.398438 121.96875 C 46.441406 121.050781 44.351562 119.511719 42.816406 119.28125 C 42.625 119.269531 42.425781 119.261719 42.304688 119.378906 C 41.492188 120.15625 46.285156 123.789062 48.066406 123.746094 " fill-opacity="1" fill-rule="nonzero"/><path fill="#38b6ff" d="M 39.660156 106.363281 C 42.003906 107.515625 43.535156 105.992188 42.632812 103.402344 C 42.070312 101.78125 40.246094 99.457031 37.960938 99.363281 C 37.800781 99.375 37.582031 99.394531 37.425781 99.441406 C 35.015625 100.164062 36.519531 104.820312 39.660156 106.363281 " fill-opacity="1" fill-rule="nonzero"/><path fill="#38b6ff" d="M 39.234375 111.636719 C 41.082031 112.265625 41.847656 110.941406 40.839844 108.863281 C 40.121094 107.375 38.1875 105.191406 36.144531 105.003906 C 35.960938 105.007812 35.703125 105.015625 35.476562 105.121094 C 33.535156 106.027344 36.171875 110.59375 39.234375 111.636719 " fill-opacity="1" fill-rule="nonzero"/><path fill="#38b6ff" d="M 18.644531 70.609375 C 18.796875 68.832031 18.660156 66.058594 17.886719 65.464844 C 17.832031 65.441406 17.746094 65.414062 17.683594 65.425781 C 16.378906 65.648438 16.003906 72.59375 17.238281 73.773438 C 17.820312 74.332031 18.453125 72.914062 18.644531 70.609375 " fill-opacity="1" fill-rule="nonzero"/><path fill="#38b6ff" d="M 16.050781 70.785156 C 16.019531 70.761719 15.96875 70.71875 15.925781 70.722656 C 15.140625 70.808594 15.496094 78.367188 16.328125 79.234375 C 16.679688 79.601562 16.910156 78.253906 16.867188 76.101562 C 16.832031 74.308594 16.554688 71.476562 16.050781 70.785156 " fill-opacity="1" fill-rule="nonzero"/><path fill="#38b6ff" d="M 45.070312 97.285156 C 44.671875 95.675781 43.085938 93.410156 40.796875 93.410156 C 40.632812 93.433594 40.410156 93.460938 40.25 93.515625 C 37.835938 94.3125 38.5625 98.585938 41.398438 100.242188 C 43.75 101.617188 45.738281 100.015625 45.070312 97.285156 " fill-opacity="1" fill-rule="nonzero"/><path fill="#38b6ff" d="M 44.023438 93.6875 C 46.488281 95.445312 49.054688 93.660156 48.519531 90.558594 C 48.230469 88.863281 46.726562 86.515625 44.304688 86.609375 C 44.214844 86.621094 44.09375 86.636719 44.003906 86.65625 C 41.253906 87.257812 41.265625 91.726562 44.023438 93.6875 " fill-opacity="1" fill-rule="nonzero"/><path fill="#38b6ff" d="M 39.589844 115.910156 C 40.769531 116.160156 40.902344 115.152344 39.886719 113.617188 C 39.066406 112.375 37.175781 110.503906 35.554688 110.246094 C 35.335938 110.238281 35.113281 110.230469 34.929688 110.378906 C 33.824219 111.292969 37.304688 115.429688 39.589844 115.910156 " fill-opacity="1" fill-rule="nonzero"/><path fill="#38b6ff" d="M 41.019531 119.695312 C 41.636719 119.71875 41.335938 118.910156 40.285156 117.726562 C 39.296875 116.609375 37.3125 114.886719 35.992188 114.550781 C 35.820312 114.527344 35.65625 114.507812 35.5625 114.625 C 34.933594 115.417969 39.472656 119.632812 41.019531 119.695312 " fill-opacity="1" fill-rule="nonzero"/><path fill="#38b6ff" d="M 15.882812 63.65625 C 15.875 63.640625 15.863281 63.617188 15.859375 63.601562 C 15.84375 63.601562 15.820312 63.597656 15.804688 63.597656 C 15.394531 64.289062 15 70.589844 15.316406 71.347656 C 15.335938 71.347656 15.355469 71.347656 15.371094 71.347656 C 15.550781 71.019531 15.703125 69.453125 15.777344 68.542969 C 15.898438 67.023438 16.039062 64.347656 15.882812 63.65625 " fill-opacity="1" fill-rule="nonzero"/><path fill="#38b6ff" d="M 17.539062 63.328125 C 17.839844 61.722656 18.09375 59.203125 17.710938 58.617188 C 17.679688 58.59375 17.628906 58.5625 17.589844 58.566406 C 16.742188 58.660156 15.660156 65.398438 16.371094 66.152344 C 16.671875 66.476562 17.175781 65.257812 17.539062 63.328125 " fill-opacity="1" fill-rule="nonzero"/><path fill="#38b6ff" d="M 20.402344 58 C 20.851562 56.425781 21.214844 53.988281 20.621094 53.492188 C 20.59375 53.484375 20.558594 53.46875 20.535156 53.464844 C 19.371094 53.269531 17.644531 59.308594 18.457031 60.722656 C 18.878906 61.453125 19.769531 60.207031 20.402344 58 " fill-opacity="1" fill-rule="nonzero"/><path fill="#38b6ff" d="M 21.605469 55.273438 C 22.105469 56.1875 23.347656 54.914062 24.207031 52.597656 C 24.777344 51.066406 25.230469 48.722656 24.457031 48.324219 C 23.011719 48.066406 20.71875 53.652344 21.605469 55.273438 " fill-opacity="1" fill-rule="nonzero"/><path fill="#38b6ff" d="M 21.398438 64.808594 C 21.6875 63.1875 21.675781 60.699219 20.742188 60.246094 C 20.703125 60.238281 20.65625 60.222656 20.617188 60.222656 C 19.109375 60.140625 18 65.925781 19.207031 67.589844 C 19.90625 68.554688 20.96875 67.203125 21.398438 64.808594 " fill-opacity="1" fill-rule="nonzero"/><path fill="#38b6ff" d="M 22.316406 61.800781 C 23.117188 62.980469 24.59375 61.597656 25.242188 59.0625 C 25.652344 57.46875 25.71875 55.066406 24.59375 54.710938 C 22.585938 54.550781 21.183594 60.132812 22.316406 61.800781 " fill-opacity="1" fill-rule="nonzero"/><path fill="#38b6ff" d="M 35.589844 65.636719 C 35.757812 63.984375 35.171875 61.617188 33.347656 61.519531 C 30.78125 61.753906 29.785156 66.328125 31.316406 68.367188 C 32.792969 70.339844 35.269531 68.757812 35.589844 65.636719 " fill-opacity="1" fill-rule="nonzero"/><path fill="#38b6ff" d="M 40.28125 71.71875 C 40.304688 70.042969 39.398438 67.671875 37.304688 67.664062 C 34.371094 68.035156 33.765625 72.648438 35.757812 74.6875 C 37.613281 76.589844 40.234375 74.871094 40.28125 71.71875 " fill-opacity="1" fill-rule="nonzero"/><path fill="#38b6ff" d="M 41.265625 80.835938 C 43.445312 82.652344 46.1875 80.808594 45.996094 77.652344 C 45.898438 75.957031 44.707031 73.605469 42.386719 73.6875 C 39.1875 74.191406 38.90625 78.867188 41.265625 80.835938 " fill-opacity="1" fill-rule="nonzero"/><path fill="#38b6ff" d="M 48.433594 79.550781 C 45.25 80.136719 45.027344 84.507812 47.375 86.53125 C 49.8125 88.628906 52.96875 86.726562 52.570312 83.402344 C 52.367188 81.695312 50.949219 79.375 48.433594 79.550781 " fill-opacity="1" fill-rule="nonzero"/><path fill="#38b6ff" d="M 30.621094 55.320312 C 28.257812 55.433594 26.917969 60.28125 28.21875 62.175781 C 29.359375 63.84375 31.480469 62.34375 32.066406 59.457031 C 32.390625 57.847656 32.15625 55.5 30.621094 55.320312 " fill-opacity="1" fill-rule="nonzero"/><path fill="#38b6ff" d="M 26.3125 55.910156 C 27.136719 57.28125 28.964844 55.882812 29.800781 53.238281 C 30.292969 51.6875 30.429688 49.382812 29.199219 49.132812 C 27.074219 49.125 25.265625 54.171875 26.3125 55.910156 " fill-opacity="1" fill-rule="nonzero"/><path fill="#38b6ff" d="M 32.472656 87.882812 L 32.445312 87.925781 L 32.453125 87.933594 Z M 32.472656 87.882812 " fill-opacity="1" fill-rule="nonzero"/><path fill="#38b6ff" d="M 34.039062 94.285156 L 34.089844 94.328125 L 34.046875 94.285156 C 34.042969 94.285156 34.042969 94.285156 34.039062 94.285156 " fill-opacity="1" fill-rule="nonzero"/><path fill="#38b6ff" d="M 53.898438 115.222656 C 56.242188 116.140625 57.863281 114.878906 56.941406 112.851562 C 56.398438 111.652344 54.660156 110.011719 52.492188 110.109375 C 52.265625 110.140625 51.984375 110.183594 51.71875 110.320312 C 49.90625 111.238281 51.214844 114.167969 53.898438 115.222656 " fill-opacity="1" fill-rule="nonzero"/><path fill="#38b6ff" d="M 53.550781 119.945312 C 55.332031 120.292969 56.0625 119.222656 55.085938 117.707031 C 54.453125 116.726562 52.699219 115.183594 50.683594 115.203125 C 50.546875 115.214844 50.140625 115.242188 49.828125 115.46875 C 48.40625 116.492188 50.839844 119.421875 53.550781 119.945312 " fill-opacity="1" fill-rule="nonzero"/><path fill="#38b6ff" d="M 44.742188 64.917969 C 44.828125 63.347656 44.039062 61.15625 42.011719 61.21875 C 39.539062 61.476562 38.324219 65.464844 40.074219 67.582031 C 41.738281 69.601562 44.570312 67.984375 44.742188 64.917969 " fill-opacity="1" fill-rule="nonzero"/><path fill="#38b6ff" d="M 38.128906 55.402344 C 35.6875 55.722656 34.550781 59.863281 35.886719 61.703125 C 37.203125 63.515625 39.667969 62.09375 40.144531 59.246094 C 40.40625 57.675781 39.953125 55.445312 38.128906 55.402344 " fill-opacity="1" fill-rule="nonzero"/><path fill="#38b6ff" d="M 16.921875 58.558594 C 17.199219 58.410156 17.6875 56.890625 17.957031 55.996094 C 18.0625 55.640625 18.980469 52.523438 18.84375 51.765625 C 18.832031 51.742188 18.808594 51.710938 18.785156 51.703125 C 18.773438 51.707031 18.753906 51.714844 18.742188 51.722656 C 18.113281 52.144531 16.445312 58.40625 16.921875 58.558594 " fill-opacity="1" fill-rule="nonzero"/><path fill="#38b6ff" d="M 59.574219 107.199219 C 59.136719 105.972656 57.628906 104.214844 55.242188 104.402344 C 55.0625 104.433594 54.824219 104.476562 54.652344 104.539062 C 52.421875 105.332031 53.074219 108.550781 55.722656 109.839844 C 58.003906 110.949219 60.46875 109.726562 59.574219 107.199219 " fill-opacity="1" fill-rule="nonzero"/><path fill="#38b6ff" d="M 49.945312 126.277344 C 50.273438 126.226562 49.535156 125.59375 48.730469 125.023438 C 47.816406 124.371094 45.773438 123.066406 44.566406 122.769531 C 44.425781 122.75 44.300781 122.730469 44.269531 122.8125 C 44.042969 123.382812 49.03125 126.429688 49.945312 126.277344 " fill-opacity="1" fill-rule="nonzero"/><path fill="#38b6ff" d="M 53.820312 123.730469 C 55.070312 123.820312 55.242188 123.046875 54.222656 121.894531 C 53.554688 121.140625 51.796875 119.699219 49.910156 119.640625 C 49.660156 119.660156 49.421875 119.675781 49.222656 119.824219 C 48.070312 120.683594 51.464844 123.570312 53.820312 123.730469 " fill-opacity="1" fill-rule="nonzero"/><path fill="#38b6ff" d="M 32.929688 55.769531 C 33.84375 57.117188 35.980469 56.085938 36.6875 53.375 C 36.945312 52.378906 37.230469 49.773438 35.46875 49.644531 C 33.238281 49.855469 31.808594 54.117188 32.929688 55.769531 " fill-opacity="1" fill-rule="nonzero"/><path fill="#38b6ff" d="M 20.816406 51.0625 C 21.285156 49.910156 22.089844 47.582031 21.777344 47.035156 C 21.761719 47.023438 21.746094 47.003906 21.726562 47 C 21.007812 46.753906 18.730469 52.457031 19.160156 53.421875 C 19.371094 53.894531 20.066406 52.902344 20.816406 51.0625 " fill-opacity="1" fill-rule="nonzero"/><path fill="#38b6ff" d="M 47.019531 67.035156 C 44.007812 67.589844 43.734375 71.636719 45.402344 73.378906 C 47.195312 75.246094 50.363281 73.933594 50.285156 70.613281 C 50.230469 68.433594 48.765625 66.828125 47.019531 67.035156 " fill-opacity="1" fill-rule="nonzero"/><path fill="#38b6ff" d="M 59.453125 88.925781 C 59.195312 87.441406 57.882812 85.324219 55.332031 85.574219 C 52.308594 86.054688 52.257812 90.234375 54.597656 91.972656 C 56.839844 93.636719 60.015625 92.152344 59.453125 88.925781 " fill-opacity="1" fill-rule="nonzero"/><path fill="#38b6ff" d="M 58.417969 103.675781 C 60.886719 105.222656 63.613281 103.621094 62.980469 101.003906 C 62.535156 99.164062 60.550781 97.785156 58.734375 98.054688 C 58.640625 98.074219 58.515625 98.09375 58.425781 98.117188 C 55.921875 98.785156 55.917969 102.109375 58.417969 103.675781 " fill-opacity="1" fill-rule="nonzero"/><path fill="#38b6ff" d="M 28.96875 43.382812 C 27.394531 43.28125 25.25 47.96875 25.84375 49.339844 C 26.277344 50.335938 27.703125 49.226562 28.667969 47.144531 C 29.257812 45.871094 29.863281 43.722656 28.96875 43.382812 " fill-opacity="1" fill-rule="nonzero"/><path fill="#38b6ff" d="M 55.019531 126.769531 C 55.632812 126.71875 55.425781 126.148438 54.515625 125.382812 C 53.277344 124.347656 51.28125 123.398438 50.246094 123.355469 C 50.054688 123.359375 49.875 123.363281 49.757812 123.472656 C 48.980469 124.203125 53.308594 126.917969 55.019531 126.769531 " fill-opacity="1" fill-rule="nonzero"/><path fill="#38b6ff" d="M 34.089844 43.925781 C 32.324219 44.039062 30.335938 47.902344 31.136719 49.664062 C 31.777344 51.070312 33.707031 49.765625 34.578125 47.335938 C 35.054688 46.015625 35.214844 44.082031 34.089844 43.925781 " fill-opacity="1" fill-rule="nonzero"/><path fill="#38b6ff" d="M 22.46875 48.292969 C 22.703125 48.910156 23.726562 47.8125 24.664062 45.945312 C 25.289062 44.699219 26.027344 42.675781 25.621094 42.300781 C 25.617188 42.300781 25.613281 42.296875 25.613281 42.296875 C 24.667969 41.929688 21.992188 47.027344 22.46875 48.292969 " fill-opacity="1" fill-rule="nonzero"/><path fill="#38b6ff" d="M 53 72.742188 C 50.292969 73.167969 49.515625 77.121094 51.761719 79.054688 C 53.960938 80.957031 56.949219 79.160156 56.675781 76.101562 C 56.539062 74.574219 55.308594 72.523438 53 72.742188 " fill-opacity="1" fill-rule="nonzero"/><path fill="#38b6ff" d="M 64.238281 116.785156 C 63.671875 115.417969 61.664062 114.304688 60.105469 114.492188 C 59.964844 114.519531 59.773438 114.554688 59.636719 114.601562 C 57.90625 115.21875 58.339844 117.546875 60.984375 118.667969 C 63.347656 119.671875 64.917969 118.421875 64.238281 116.785156 " fill-opacity="1" fill-rule="nonzero"/><path fill="#38b6ff" d="M 62.335938 121.269531 C 61.75 120.371094 60 119.167969 58.246094 119.25 C 57.929688 119.28125 57.671875 119.367188 57.476562 119.511719 C 56.238281 120.410156 58.136719 122.597656 60.597656 123.117188 C 62.492188 123.511719 63.097656 122.429688 62.335938 121.269531 " fill-opacity="1" fill-rule="nonzero"/><path fill="#38b6ff" d="M 46.835938 54.820312 C 44.796875 55.089844 43.320312 58.554688 44.941406 60.542969 C 46.4375 62.378906 49.050781 60.9375 49.308594 58.132812 C 49.441406 56.679688 48.65625 54.71875 46.835938 54.820312 " fill-opacity="1" fill-rule="nonzero"/><path fill="#38b6ff" d="M 44.863281 52.628906 C 45.179688 50.808594 44.3125 49.242188 43.035156 49.347656 C 40.902344 49.707031 39.558594 53.265625 40.890625 55.03125 C 42.164062 56.71875 44.449219 54.992188 44.863281 52.628906 " fill-opacity="1" fill-rule="nonzero"/><path fill="#38b6ff" d="M 22.492188 44.449219 C 22.757812 43.957031 24.074219 41.484375 24.027344 40.867188 C 24.019531 40.855469 24.015625 40.839844 24.003906 40.832031 C 23.589844 40.527344 20.824219 45.777344 21.042969 46.453125 C 21.128906 46.714844 21.683594 45.949219 22.492188 44.449219 " fill-opacity="1" fill-rule="nonzero"/><path fill="#38b6ff" d="M 37.945312 49.328125 C 38.75 50.726562 40.90625 49.660156 41.574219 47.011719 C 41.875 45.808594 41.828125 44.007812 40.460938 43.984375 C 38.476562 44.25 37.070312 47.808594 37.945312 49.328125 " fill-opacity="1" fill-rule="nonzero"/><path fill="#38b6ff" d="M 51.769531 60.324219 C 49.382812 60.699219 48.421875 64.410156 50.261719 66.164062 C 52.042969 67.867188 54.8125 66.175781 54.746094 63.421875 C 54.71875 62.117188 53.882812 60.125 51.769531 60.324219 " fill-opacity="1" fill-rule="nonzero"/><path fill="#38b6ff" d="M 66.847656 111.320312 C 66.277344 109.855469 64.507812 108.855469 62.898438 109.09375 C 62.742188 109.125 62.53125 109.167969 62.378906 109.222656 C 60.359375 109.945312 60.804688 112.570312 63.132812 113.675781 C 65.464844 114.789062 67.652344 113.402344 66.847656 111.320312 " fill-opacity="1" fill-rule="nonzero"/><path fill="#38b6ff" d="M 61.410156 125.0625 C 60.417969 124.042969 58.640625 123.261719 57.449219 123.328125 C 57.25 123.347656 56.917969 123.382812 56.730469 123.578125 C 55.933594 124.417969 58.894531 126.515625 60.953125 126.570312 C 62.09375 126.601562 62.289062 125.96875 61.410156 125.0625 " fill-opacity="1" fill-rule="nonzero"/><path fill="#38b6ff" d="M 33.964844 38.453125 C 32.652344 38.332031 30.214844 42.226562 30.703125 43.664062 C 31.046875 44.671875 32.554688 43.851562 33.691406 41.601562 C 34.195312 40.601562 34.902344 38.65625 33.964844 38.453125 " fill-opacity="1" fill-rule="nonzero"/><path fill="#38b6ff" d="M 56.910156 129.066406 C 57.203125 129.007812 56.765625 128.621094 55.742188 128.035156 C 55.492188 127.890625 53.246094 126.617188 51.824219 126.414062 C 51.675781 126.40625 51.535156 126.398438 51.488281 126.46875 C 51.164062 126.953125 55.980469 129.257812 56.910156 129.066406 " fill-opacity="1" fill-rule="nonzero"/><path fill="#38b6ff" d="M 70.304688 105.457031 C 70.019531 104.3125 68.75 102.71875 66.410156 103.023438 C 66.410156 103.027344 66.410156 103.027344 66.410156 103.027344 C 66.40625 103.027344 66.40625 103.027344 66.40625 103.027344 C 66.046875 103.109375 65.300781 103.28125 64.796875 103.964844 C 63.589844 105.59375 65.222656 108.714844 68.371094 108.296875 C 68.375 108.296875 68.375 108.296875 68.375 108.296875 C 68.375 108.296875 68.378906 108.296875 68.378906 108.296875 C 70.792969 107.742188 70.359375 105.691406 70.304688 105.457031 " fill-opacity="1" fill-rule="nonzero"/><path fill="#38b6ff" d="M 66.839844 94.1875 C 66.609375 92.871094 65.308594 90.898438 62.792969 91.203125 C 59.863281 91.890625 59.878906 95.476562 62.164062 96.980469 C 64.507812 98.519531 67.304688 96.847656 66.839844 94.1875 " fill-opacity="1" fill-rule="nonzero"/><path fill="#38b6ff" d="M 59.804688 78.394531 C 57.097656 78.894531 56.527344 82.785156 58.90625 84.515625 C 61.183594 86.171875 64.050781 84.304688 63.621094 81.4375 C 63.375 79.765625 61.949219 78.128906 59.804688 78.394531 " fill-opacity="1" fill-rule="nonzero"/><path fill="#38b6ff" d="M 19.601562 48.996094 C 19.996094 48.050781 20.929688 45.785156 21.046875 45.222656 C 21.050781 45.207031 21.050781 45.1875 21.050781 45.171875 C 21.039062 45.171875 21.027344 45.171875 21.015625 45.171875 C 20.625 45.65625 18.441406 50.824219 18.625 51.144531 C 18.683594 51.0625 18.816406 50.875 19.601562 48.996094 " fill-opacity="1" fill-rule="nonzero"/><path fill="#38b6ff" d="M 51.21875 127.382812 C 48.640625 126.042969 47.90625 125.722656 47.523438 125.582031 C 47.523438 125.582031 47.523438 125.582031 47.519531 125.582031 C 47.484375 125.570312 47.433594 125.558594 47.394531 125.550781 C 47.394531 125.5625 47.390625 125.574219 47.390625 125.582031 C 47.925781 126.089844 52.429688 128.265625 52.964844 128.347656 C 52.941406 128.304688 52.925781 128.269531 51.21875 127.382812 " fill-opacity="1" fill-rule="nonzero"/><path fill="#38b6ff" d="M 26.6875 43.003906 C 26.875 43.675781 27.925781 43.015625 29.132812 40.996094 C 29.199219 40.878906 30.820312 38.144531 30.121094 37.714844 C 28.917969 37.523438 26.382812 41.929688 26.6875 43.003906 " fill-opacity="1" fill-rule="nonzero"/><path fill="#38b6ff" d="M 61.882812 129.214844 C 61.882812 129.214844 61.882812 129.214844 61.886719 129.214844 C 61.925781 129.210938 61.980469 129.210938 62.023438 129.203125 C 62.597656 129.136719 62.441406 128.714844 61.625 128.128906 C 60.464844 127.300781 58.722656 126.636719 57.742188 126.648438 C 57.566406 126.660156 57.386719 126.671875 57.269531 126.765625 C 56.644531 127.285156 59.824219 129.171875 61.882812 129.214844 " fill-opacity="1" fill-rule="nonzero"/><path fill="#38b6ff" d="M 39.175781 38.691406 C 38.976562 38.710938 38.679688 38.742188 38.179688 39.152344 C 36.378906 40.613281 35.367188 44.085938 37.066406 44.207031 C 37.066406 44.207031 37.070312 44.207031 37.070312 44.207031 C 38.476562 44.0625 39.398438 41.976562 39.496094 41.742188 C 40.117188 40.269531 40.136719 38.691406 39.175781 38.691406 " fill-opacity="1" fill-rule="nonzero"/><path fill="#38b6ff" d="M 27.871094 36.515625 C 27.425781 36.414062 24.058594 40.871094 24.507812 41.785156 C 24.511719 41.785156 24.511719 41.785156 24.511719 41.785156 C 24.511719 41.785156 24.511719 41.785156 24.511719 41.789062 C 24.898438 42.011719 26.261719 39.949219 26.414062 39.714844 C 26.898438 38.96875 28.113281 36.945312 27.914062 36.539062 C 27.902344 36.535156 27.886719 36.519531 27.871094 36.515625 " fill-opacity="1" fill-rule="nonzero"/><path fill="#38b6ff" d="M 57.699219 65.769531 C 54.796875 66.453125 54.742188 70.085938 56.457031 71.539062 C 58.246094 73.050781 61.234375 71.6875 61.035156 68.792969 C 60.898438 66.828125 59.402344 65.476562 57.699219 65.769531 " fill-opacity="1" fill-rule="nonzero"/><path fill="#38b6ff" d="M 64.445312 71.117188 C 62.035156 71.742188 61.339844 74.839844 63.222656 76.546875 C 65.394531 78.511719 68.199219 76.554688 67.976562 73.992188 C 67.859375 72.597656 66.5625 70.824219 64.445312 71.117188 " fill-opacity="1" fill-rule="nonzero"/><path fill="#38b6ff" d="M 71.027344 86.757812 C 70.78125 84.929688 68.917969 83.519531 67.199219 83.859375 C 64.722656 84.511719 64.132812 87.738281 66.179688 89.425781 C 68.59375 91.417969 71.382812 89.40625 71.027344 86.757812 " fill-opacity="1" fill-rule="nonzero"/><path fill="#38b6ff" d="M 74.246094 98.792969 C 73.949219 97.207031 72.121094 96.019531 70.484375 96.34375 C 68.054688 96.976562 67.589844 99.851562 69.679688 101.300781 C 72.070312 102.957031 74.683594 101.097656 74.246094 98.792969 " fill-opacity="1" fill-rule="nonzero"/><path fill="#38b6ff" d="M 31.609375 37.855469 C 31.726562 38.714844 33.117188 37.589844 34.171875 36.070312 C 34.929688 34.980469 35.699219 33.359375 35.175781 33.148438 C 34.066406 33.109375 31.433594 36.585938 31.609375 37.855469 " fill-opacity="1" fill-rule="nonzero"/><path fill="#38b6ff" d="M 71.203125 120.0625 C 70.753906 118.960938 68.980469 118.078125 67.617188 118.277344 C 67.488281 118.304688 67.320312 118.339844 67.195312 118.382812 C 65.75 118.910156 65.945312 120.703125 68.039062 121.613281 C 70.175781 122.542969 71.773438 121.46875 71.203125 120.0625 " fill-opacity="1" fill-rule="nonzero"/><path fill="#38b6ff" d="M 54.542969 128.75 C 54.503906 128.746094 54.453125 128.738281 54.414062 128.738281 C 54.410156 128.746094 54.402344 128.761719 54.398438 128.769531 C 54.855469 129.21875 58.832031 130.609375 59.734375 130.75 C 59.746094 130.742188 59.757812 130.730469 59.765625 130.722656 C 59.613281 130.625 59.085938 130.398438 58.195312 130.042969 C 57.914062 129.933594 55.433594 128.953125 54.542969 128.75 " fill-opacity="1" fill-rule="nonzero"/><path fill="#38b6ff" d="M 36.035156 38.207031 C 36.332031 39.140625 37.796875 38.167969 38.832031 36.351562 C 39.394531 35.363281 39.988281 33.746094 39.183594 33.609375 C 37.871094 33.703125 35.636719 36.96875 36.035156 38.207031 " fill-opacity="1" fill-rule="nonzero"/><path fill="#38b6ff" d="M 63.882812 131.105469 C 64.101562 130.976562 63.15625 130.519531 62.863281 130.382812 C 61.726562 129.859375 60 129.269531 59.195312 129.238281 C 59.070312 129.238281 58.9375 129.238281 58.894531 129.304688 C 58.609375 129.777344 63.269531 131.457031 63.882812 131.105469 " fill-opacity="1" fill-rule="nonzero"/><path fill="#38b6ff" d="M 51.585938 48.542969 C 49.570312 48.992188 48.574219 52.082031 49.945312 53.628906 C 51.28125 55.132812 53.617188 53.738281 53.789062 51.332031 C 53.910156 49.691406 52.859375 48.363281 51.585938 48.542969 " fill-opacity="1" fill-rule="nonzero"/><path fill="#38b6ff" d="M 47.867188 43.457031 C 46.070312 43.816406 44.859375 46.757812 45.875 48.300781 C 46.878906 49.820312 49.058594 48.5625 49.46875 46.230469 C 49.742188 44.648438 48.980469 43.328125 47.867188 43.457031 " fill-opacity="1" fill-rule="nonzero"/><path fill="#38b6ff" d="M 67.449219 125.6875 C 69.214844 126.054688 69.914062 125.171875 69.25 124.1875 C 68.613281 123.246094 66.921875 122.519531 65.703125 122.667969 C 65.472656 122.707031 65.253906 122.746094 65.027344 122.898438 C 63.957031 123.636719 65.359375 125.253906 67.449219 125.6875 " fill-opacity="1" fill-rule="nonzero"/><path fill="#38b6ff" d="M 28.820312 36.949219 C 28.898438 37.417969 29.832031 36.652344 30.949219 35.203125 C 30.96875 35.175781 32.84375 32.734375 32.488281 32.34375 C 31.75 32.140625 28.664062 36.015625 28.820312 36.949219 " fill-opacity="1" fill-rule="nonzero"/><path fill="#38b6ff" d="M 67.828125 128.769531 C 68.824219 128.757812 69.007812 128.25 68.265625 127.5625 C 67.675781 127.019531 66.277344 126.238281 64.84375 126.320312 C 64.671875 126.335938 64.359375 126.390625 64.199219 126.550781 C 63.488281 127.261719 66 128.796875 67.828125 128.769531 " fill-opacity="1" fill-rule="nonzero"/><path fill="#38b6ff" d="M 45.378906 38.492188 C 43.816406 38.648438 42.308594 41.769531 43.136719 43.132812 C 43.816406 44.25 45.695312 43.304688 46.308594 41.113281 C 46.605469 40.042969 46.601562 38.464844 45.378906 38.492188 " fill-opacity="1" fill-rule="nonzero"/><path fill="#38b6ff" d="M 56.453125 53.710938 C 54.355469 54.085938 53.5 57.292969 55.089844 58.832031 C 56.535156 60.230469 59.179688 59 59.109375 56.382812 C 59.074219 55.183594 58.339844 53.480469 56.453125 53.710938 " fill-opacity="1" fill-rule="nonzero"/><path fill="#38b6ff" d="M 73.910156 115.011719 C 73.613281 114.171875 72.410156 112.9375 70.445312 113.203125 C 70.308594 113.230469 70.097656 113.28125 69.886719 113.367188 C 68.234375 114.0625 68.558594 116.140625 70.449219 117.011719 C 72.449219 117.933594 74.519531 116.738281 73.910156 115.011719 " fill-opacity="1" fill-rule="nonzero"/><path fill="#38b6ff" d="M 25.347656 38.132812 C 26.144531 36.976562 27.121094 35.503906 27.25 35.070312 C 27.246094 35.058594 27.238281 35.039062 27.234375 35.027344 C 26.765625 35.183594 23.960938 39.402344 24.074219 39.777344 C 24.125 39.757812 24.265625 39.710938 25.347656 38.132812 " fill-opacity="1" fill-rule="nonzero"/><path fill="#38b6ff" d="M 29.289062 33.9375 C 29.308594 33.914062 31.222656 31.605469 31.226562 31.171875 C 31.21875 31.164062 31.210938 31.15625 31.207031 31.148438 C 30.664062 31.125 27.390625 35.171875 27.667969 35.523438 C 27.910156 35.542969 28.785156 34.539062 29.289062 33.9375 " fill-opacity="1" fill-rule="nonzero"/><path fill="#38b6ff" d="M 61.847656 131.109375 C 61.722656 131.101562 61.722656 131.101562 61.6875 131.132812 C 61.984375 131.421875 66.179688 132.460938 66.566406 132.339844 C 66.515625 132.308594 66.429688 132.261719 65.246094 131.933594 C 63.539062 131.457031 62.394531 131.179688 61.847656 131.109375 " fill-opacity="1" fill-rule="nonzero"/><path fill="#38b6ff" d="M 71.796875 76.425781 C 69.496094 76.960938 68.902344 80.058594 70.804688 81.609375 C 72.847656 83.273438 75.648438 81.625 75.273438 78.976562 C 75.097656 77.699219 73.898438 76.066406 71.796875 76.425781 " fill-opacity="1" fill-rule="nonzero"/><path fill="#38b6ff" d="M 75.613281 111.847656 C 75.613281 111.847656 75.617188 111.847656 75.617188 111.847656 C 75.617188 111.84375 75.617188 111.84375 75.621094 111.84375 C 75.621094 111.84375 75.621094 111.84375 75.625 111.84375 C 77.773438 111.308594 77.4375 109.578125 77.390625 109.382812 C 77.167969 108.425781 76.082031 107.125 74.011719 107.449219 C 73.195312 107.617188 72.757812 108.050781 72.570312 108.292969 C 71.382812 109.824219 73.03125 112.242188 75.613281 111.847656 " fill-opacity="1" fill-rule="nonzero"/><path fill="#38b6ff" d="M 44.195312 33.640625 C 42.933594 33.730469 41.195312 36.550781 41.617188 37.835938 C 41.964844 38.90625 43.574219 38.144531 44.453125 36.097656 C 44.851562 35.164062 45.136719 33.667969 44.195312 33.640625 " fill-opacity="1" fill-rule="nonzero"/><path fill="#38b6ff" d="M 33.855469 32.269531 C 33.839844 32.804688 34.886719 32.078125 36.097656 30.707031 C 36.71875 30.007812 37.90625 28.480469 37.601562 28.253906 C 36.824219 28.171875 33.882812 31.324219 33.855469 32.269531 " fill-opacity="1" fill-rule="nonzero"/><path fill="#38b6ff" d="M 68.859375 130.953125 C 69.222656 130.84375 69.003906 130.519531 68.304688 130.121094 C 67.714844 129.789062 66.285156 129.164062 65.082031 129.191406 C 65.082031 129.191406 65.078125 129.191406 65.078125 129.191406 C 65.078125 129.191406 65.074219 129.191406 65.074219 129.191406 C 64.933594 129.207031 64.695312 129.230469 64.613281 129.351562 C 64.210938 129.960938 67.742188 131.289062 68.859375 130.953125 " fill-opacity="1" fill-rule="nonzero"/><path fill="#38b6ff" d="M 62.316406 58.839844 C 62.316406 58.84375 62.316406 58.84375 62.3125 58.84375 C 62.308594 58.84375 62.308594 58.84375 62.308594 58.84375 C 62.304688 58.84375 62.304688 58.84375 62.304688 58.84375 C 62.304688 58.84375 62.300781 58.84375 62.300781 58.84375 C 59.730469 59.535156 59.753906 62.804688 61.3125 64 C 63.085938 65.355469 65.511719 63.777344 65.304688 61.402344 C 65.203125 60.257812 64.304688 58.550781 62.316406 58.839844 " fill-opacity="1" fill-rule="nonzero"/><path fill="#38b6ff" d="M 59.019531 130.625 L 59.183594 130.671875 C 59.0625 130.636719 58.9375 130.597656 58.816406 130.5625 L 59.019531 130.625 " fill-opacity="1" fill-rule="nonzero"/><path fill="#38b6ff" d="M 78.445312 91.542969 C 78.140625 89.921875 76.535156 88.851562 74.933594 89.203125 C 72.347656 89.929688 72.234375 93.019531 74.179688 94.277344 C 76.261719 95.628906 78.894531 93.9375 78.445312 91.542969 " fill-opacity="1" fill-rule="nonzero"/><path fill="#38b6ff" d="M 37.054688 32.875 C 37.1875 33.515625 38.421875 32.675781 39.546875 31.175781 C 40.082031 30.464844 41.011719 28.949219 40.472656 28.804688 C 39.621094 28.730469 36.828125 31.761719 37.054688 32.875 " fill-opacity="1" fill-rule="nonzero"/><path fill="#38b6ff" d="M 81.433594 103.101562 C 81.292969 101.878906 79.90625 100.722656 78.140625 101.027344 C 76.105469 101.589844 75.527344 103.828125 77.089844 105.085938 C 79.066406 106.675781 81.667969 105.128906 81.433594 103.101562 " fill-opacity="1" fill-rule="nonzero"/><path fill="#38b6ff" d="M 70.480469 132.4375 C 70.648438 132.34375 69.882812 132.070312 69.644531 131.984375 C 68.667969 131.648438 67.117188 131.277344 66.453125 131.285156 C 66.355469 131.292969 66.191406 131.300781 66.191406 131.378906 C 66.191406 131.765625 69.996094 132.707031 70.480469 132.4375 " fill-opacity="1" fill-rule="nonzero"/><path fill="#38b6ff" d="M 69.027344 63.890625 C 69.027344 63.890625 69.027344 63.890625 69.023438 63.890625 C 69.019531 63.890625 69.019531 63.890625 69.019531 63.890625 C 69.019531 63.890625 69.015625 63.890625 69.015625 63.890625 C 66.773438 64.542969 66.304688 67.617188 68.246094 68.949219 C 70.28125 70.347656 72.503906 68.421875 72.183594 66.238281 C 72.011719 65.070312 70.820312 63.605469 69.027344 63.890625 " fill-opacity="1" fill-rule="nonzero"/><path fill="#38b6ff" d="M 41.496094 32.890625 C 41.714844 33.632812 43.019531 32.765625 43.945312 31.257812 C 44.375 30.5625 45.03125 29.09375 44.332031 29.003906 C 43.179688 29.148438 41.195312 31.867188 41.496094 32.890625 " fill-opacity="1" fill-rule="nonzero"/><path fill="#38b6ff" d="M 32.15625 31.265625 C 32.15625 31.265625 32.160156 31.265625 32.160156 31.265625 C 32.433594 31.378906 33.707031 30.101562 34.089844 29.707031 C 34.167969 29.628906 35.988281 27.746094 35.898438 27.421875 C 35.886719 27.417969 35.875 27.410156 35.867188 27.40625 C 35.492188 27.34375 31.898438 30.621094 32.15625 31.265625 " fill-opacity="1" fill-rule="nonzero"/><path fill="#38b6ff" d="M 77.613281 122.738281 C 77.316406 122.101562 76.234375 121.296875 74.746094 121.5 C 74.535156 121.539062 74.324219 121.609375 74.167969 121.695312 C 73.058594 122.292969 73.542969 123.632812 75.0625 124.167969 C 76.679688 124.738281 78.15625 123.910156 77.613281 122.738281 " fill-opacity="1" fill-rule="nonzero"/><path fill="#38b6ff" d="M 54.746094 46.789062 C 55.921875 48.0625 57.929688 46.746094 57.949219 44.683594 C 57.960938 43.691406 57.375 42.359375 56.046875 42.515625 C 54.414062 42.816406 53.585938 45.535156 54.746094 46.789062 " fill-opacity="1" fill-rule="nonzero"/><path fill="#38b6ff" d="M 73.992188 127.730469 C 75.378906 127.980469 76.210938 127.382812 75.644531 126.550781 C 75.148438 125.820312 73.808594 125.316406 72.769531 125.46875 C 72.605469 125.5 72.324219 125.554688 72.113281 125.722656 C 71.363281 126.320312 72.417969 127.441406 73.992188 127.730469 " fill-opacity="1" fill-rule="nonzero"/><path fill="#38b6ff" d="M 52.394531 37.847656 C 50.753906 38.207031 49.980469 40.941406 50.890625 41.984375 C 51.734375 42.949219 53.503906 41.988281 53.761719 40.015625 C 53.914062 38.855469 53.4375 37.695312 52.394531 37.847656 " fill-opacity="1" fill-rule="nonzero"/><path fill="#38b6ff" d="M 80.449219 118.125 C 80.21875 117.445312 79.277344 116.527344 77.636719 116.792969 C 77.558594 116.808594 77.386719 116.855469 77.386719 116.855469 C 75.714844 117.363281 75.90625 119.058594 77.289062 119.777344 C 78.976562 120.65625 80.957031 119.621094 80.449219 118.125 " fill-opacity="1" fill-rule="nonzero"/><path fill="#38b6ff" d="M 50.003906 33.28125 C 48.746094 33.441406 47.503906 36.011719 48.164062 37.097656 C 48.710938 38.003906 50.25 37.222656 50.757812 35.429688 C 51.011719 34.539062 51.023438 33.226562 50.003906 33.28125 " fill-opacity="1" fill-rule="nonzero"/><path fill="#38b6ff" d="M 60.847656 47.296875 C 58.753906 47.84375 58.640625 50.621094 59.847656 51.664062 C 61.101562 52.746094 63.25 51.664062 63.152344 49.519531 C 63.082031 48.058594 62.050781 47.0625 60.847656 47.296875 " fill-opacity="1" fill-rule="nonzero"/><path fill="#38b6ff" d="M 74.222656 130.367188 C 75.011719 130.316406 75.167969 129.949219 74.601562 129.476562 C 74.011719 128.976562 72.816406 128.535156 71.835938 128.652344 C 71.6875 128.675781 71.4375 128.71875 71.296875 128.851562 C 70.714844 129.398438 72.765625 130.460938 74.222656 130.367188 " fill-opacity="1" fill-rule="nonzero"/><path fill="#38b6ff" d="M 75.039062 132.109375 C 75.320312 132.023438 75.171875 131.820312 74.644531 131.578125 C 74.085938 131.320312 72.917969 130.953125 71.992188 131.015625 C 71.851562 131.027344 71.667969 131.0625 71.613281 131.148438 C 71.335938 131.570312 74.1875 132.367188 75.039062 132.109375 " fill-opacity="1" fill-rule="nonzero"/><path fill="#38b6ff" d="M 42.683594 28.066406 C 42.785156 28.523438 43.8125 27.84375 44.796875 26.667969 C 45.570312 25.742188 46.140625 24.730469 45.753906 24.699219 C 44.84375 24.777344 42.519531 27.328125 42.683594 28.066406 " fill-opacity="1" fill-rule="nonzero"/><g clip-path="url(#ea8a0e76fb)"><path fill="#38b6ff" d="M 69.042969 132.628906 C 68.9375 132.625 68.9375 132.625 68.910156 132.648438 C 69.191406 132.824219 72.796875 133.304688 73.058594 133.199219 C 72.964844 133.175781 72.84375 133.15625 71.882812 133.011719 C 70.367188 132.78125 69.535156 132.652344 69.042969 132.628906 " fill-opacity="1" fill-rule="nonzero"/></g><path fill="#38b6ff" d="M 49.09375 30.859375 C 49.535156 29.878906 49.578125 28.820312 48.9375 28.871094 C 47.800781 29.078125 46.382812 31.453125 46.828125 32.398438 C 47.191406 33.164062 48.441406 32.316406 49.09375 30.859375 " fill-opacity="1" fill-rule="nonzero"/><path fill="#38b6ff" d="M 37.335938 27.058594 C 37.28125 27.375 38.121094 26.824219 39.296875 25.789062 C 39.316406 25.773438 41.253906 24.042969 41.117188 23.8125 C 40.59375 23.71875 37.453125 26.417969 37.335938 27.058594 " fill-opacity="1" fill-rule="nonzero"/><path fill="#38b6ff" d="M 79.527344 81.660156 C 77.082031 82.398438 77.179688 85.222656 78.621094 86.382812 C 80.308594 87.738281 83.089844 86.496094 82.730469 83.957031 C 82.5 82.3125 81.0625 81.285156 79.527344 81.660156 " fill-opacity="1" fill-rule="nonzero"/><path fill="#38b6ff" d="M 42.964844 24.398438 C 42.214844 24.382812 39.355469 27.101562 39.410156 27.777344 C 39.4375 28.132812 40.277344 27.6875 41.589844 26.355469 C 41.660156 26.28125 43.332031 24.582031 42.964844 24.398438 " fill-opacity="1" fill-rule="nonzero"/><path fill="#38b6ff" d="M 82.652344 94.113281 C 80.453125 94.671875 80.195312 97.269531 81.75 98.367188 C 83.484375 99.597656 86 98.132812 85.703125 96.0625 C 85.566406 95.101562 84.613281 93.71875 82.652344 94.113281 " fill-opacity="1" fill-rule="nonzero"/><path fill="#38b6ff" d="M 31.285156 29.746094 C 31.289062 29.734375 31.289062 29.71875 31.289062 29.707031 C 30.9375 29.863281 28.09375 33.226562 28.085938 33.496094 C 28.167969 33.445312 28.378906 33.222656 29.3125 32.136719 C 30.835938 30.355469 31.164062 29.949219 31.285156 29.746094 " fill-opacity="1" fill-rule="nonzero"/><path fill="#38b6ff" d="M 76.351562 68.96875 C 73.890625 69.71875 74.09375 72.65625 75.679688 73.710938 C 77.515625 74.933594 79.804688 73.378906 79.445312 71.152344 C 79.199219 69.621094 77.785156 68.621094 76.351562 68.96875 " fill-opacity="1" fill-rule="nonzero"/><path fill="#38b6ff" d="M 66.667969 52.054688 C 64.609375 52.644531 64.433594 55.367188 65.9375 56.457031 C 67.507812 57.597656 69.5625 56.144531 69.265625 54.101562 C 69.132812 53.167969 68.308594 51.78125 66.667969 52.054688 " fill-opacity="1" fill-rule="nonzero"/><path fill="#38b6ff" d="M 84.027344 112.835938 C 83.839844 111.90625 82.808594 111.070312 81.265625 111.351562 C 79.371094 111.792969 79.167969 113.675781 80.46875 114.574219 C 82.042969 115.65625 84.371094 114.523438 84.027344 112.835938 " fill-opacity="1" fill-rule="nonzero"/><path fill="#38b6ff" d="M 33.351562 28.441406 C 33.371094 28.421875 35.25 26.617188 35.371094 26.300781 C 35.371094 26.300781 35.371094 26.300781 35.367188 26.28125 C 34.964844 26.265625 31.765625 29.382812 31.839844 29.71875 C 31.984375 29.734375 32.847656 28.925781 33.351562 28.441406 " fill-opacity="1" fill-rule="nonzero"/><path fill="#38b6ff" d="M 72.800781 61.105469 C 74.566406 62.261719 76.40625 60.601562 76.074219 58.757812 C 75.898438 57.796875 74.910156 56.515625 73.332031 56.8125 C 71.617188 57.25 71.007812 59.933594 72.800781 61.105469 " fill-opacity="1" fill-rule="nonzero"/><path fill="#38b6ff" d="M 88.125 106.789062 C 88 105.820312 86.949219 104.960938 85.476562 105.253906 C 83.886719 105.65625 83.074219 107.578125 84.5 108.644531 C 86.144531 109.875 88.34375 108.445312 88.125 106.789062 " fill-opacity="1" fill-rule="nonzero"/><g clip-path="url(#49442e9dc1)"><path fill="#38b6ff" d="M 73.328125 132.574219 C 73.171875 132.585938 73.125 132.601562 73.113281 132.640625 C 73.257812 132.929688 76.167969 133.246094 76.539062 133.105469 C 76.542969 133.097656 76.542969 133.089844 76.542969 133.082031 C 76.515625 133.058594 76.433594 133 75.722656 132.859375 C 75.457031 132.804688 74.097656 132.546875 73.328125 132.574219 " fill-opacity="1" fill-rule="nonzero"/></g><path fill="#38b6ff" d="M 46.8125 27.78125 C 46.914062 28.371094 47.90625 27.84375 48.78125 26.5 C 49.339844 25.640625 49.652344 24.726562 49.1875 24.742188 C 48.34375 24.871094 46.679688 27 46.8125 27.78125 " fill-opacity="1" fill-rule="nonzero"/><path fill="#38b6ff" d="M 38.144531 24.871094 C 38.867188 24.289062 40.085938 23.273438 40.140625 23.046875 C 39.921875 22.851562 36.597656 25.53125 36.550781 25.949219 C 36.578125 25.976562 36.664062 26.066406 38.144531 24.871094 " fill-opacity="1" fill-rule="nonzero"/><path fill="#38b6ff" d="M 59.164062 40.214844 C 60.0625 41.078125 61.640625 40.222656 61.59375 38.515625 C 61.578125 37.847656 61.226562 36.632812 60.019531 36.804688 C 58.640625 37.097656 58.265625 39.351562 59.164062 40.214844 " fill-opacity="1" fill-rule="nonzero"/><path fill="#38b6ff" d="M 81.25 124.171875 C 81.164062 124.195312 81.042969 124.222656 80.957031 124.253906 C 79.878906 124.640625 80.117188 125.636719 81.078125 126.070312 C 82.179688 126.566406 83.738281 126.046875 83.382812 125.0625 C 83.210938 124.59375 82.503906 123.96875 81.25 124.171875 " fill-opacity="1" fill-rule="nonzero"/><path fill="#38b6ff" d="M 57.566406 34.253906 C 57.664062 33.308594 57.273438 32.414062 56.453125 32.550781 C 55.183594 32.859375 54.644531 34.96875 55.363281 35.792969 C 56.042969 36.570312 57.402344 35.820312 57.566406 34.253906 " fill-opacity="1" fill-rule="nonzero"/><path fill="#38b6ff" d="M 79.824219 129.238281 C 80.847656 129.429688 81.757812 129.046875 81.320312 128.378906 C 80.960938 127.835938 80.027344 127.527344 79.191406 127.671875 C 79.058594 127.699219 78.832031 127.746094 78.660156 127.871094 C 78.082031 128.28125 78.722656 129.035156 79.824219 129.238281 " fill-opacity="1" fill-rule="nonzero"/><path fill="#38b6ff" d="M 86.320312 120.84375 C 86.191406 120.316406 85.519531 119.625 84.199219 119.871094 C 82.636719 120.285156 82.71875 121.574219 83.652344 122.117188 C 84.882812 122.832031 86.601562 122.011719 86.320312 120.84375 " fill-opacity="1" fill-rule="nonzero"/><path fill="#38b6ff" d="M 84.070312 73.988281 C 81.929688 74.585938 82.03125 77.226562 83.371094 78.222656 C 84.886719 79.347656 87.320312 78.078125 86.890625 75.855469 C 86.734375 75.027344 85.9375 73.570312 84.070312 73.988281 " fill-opacity="1" fill-rule="nonzero"/><path fill="#38b6ff" d="M 48.378906 20.804688 C 47.730469 20.839844 45.222656 22.96875 45.21875 23.488281 C 45.214844 23.746094 45.898438 23.40625 47.035156 22.386719 C 47.054688 22.371094 48.675781 20.914062 48.378906 20.804688 " fill-opacity="1" fill-rule="nonzero"/><path fill="#38b6ff" d="M 43.066406 23.09375 C 43.046875 23.308594 43.769531 22.886719 44.871094 22.042969 C 45.046875 21.90625 46.59375 20.714844 46.613281 20.476562 C 46.609375 20.46875 46.601562 20.464844 46.597656 20.457031 C 46.109375 20.429688 43.105469 22.667969 43.066406 23.09375 " fill-opacity="1" fill-rule="nonzero"/><path fill="#38b6ff" d="M 86.492188 90.804688 C 87.953125 91.875 90.375 90.695312 90.074219 88.566406 C 89.957031 87.742188 89.226562 86.296875 87.3125 86.722656 C 84.984375 87.484375 85.335938 89.960938 86.492188 90.804688 " fill-opacity="1" fill-rule="nonzero"/><path fill="#38b6ff" d="M 64.132812 44.652344 C 65.3125 45.621094 66.921875 44.464844 66.703125 42.804688 C 66.605469 42.054688 65.992188 40.9375 64.765625 41.144531 C 63.371094 41.464844 62.972656 43.695312 64.132812 44.652344 " fill-opacity="1" fill-rule="nonzero"/><path fill="#38b6ff" d="M 92.527344 100.03125 C 92.378906 98.964844 91.207031 98.269531 90.070312 98.574219 C 88.378906 99.121094 87.835938 101.054688 89.097656 102.019531 C 90.644531 103.195312 92.757812 101.671875 92.527344 100.03125 " fill-opacity="1" fill-rule="nonzero"/><path fill="#38b6ff" d="M 80.027344 131.410156 C 80.519531 131.324219 80.585938 131.070312 80.191406 130.789062 C 79.867188 130.558594 79.027344 130.230469 78.160156 130.335938 C 77.878906 130.378906 77.757812 130.464844 77.707031 130.53125 C 77.371094 130.96875 78.996094 131.585938 80.027344 131.410156 " fill-opacity="1" fill-rule="nonzero"/><path fill="#38b6ff" d="M 52.792969 31.382812 C 53.238281 32.148438 54.390625 31.390625 54.753906 30.097656 C 54.992188 29.234375 54.804688 28.335938 54.152344 28.421875 C 53.164062 28.652344 52.300781 30.535156 52.792969 31.382812 " fill-opacity="1" fill-rule="nonzero"/><path fill="#38b6ff" d="M 87.914062 114.792969 C 86.613281 115.179688 86.101562 116.464844 86.957031 117.203125 C 88.164062 118.242188 90.089844 117.222656 90.003906 115.941406 C 89.945312 115.121094 88.910156 114.550781 87.914062 114.792969 " fill-opacity="1" fill-rule="nonzero"/><path fill="#38b6ff" d="M 71.484375 49.339844 C 71.484375 49.339844 71.488281 49.339844 71.488281 49.339844 C 72.597656 48.980469 72.847656 47.859375 72.746094 47.199219 C 72.574219 46.101562 71.5 45.289062 70.535156 45.519531 C 70.339844 45.582031 69.933594 45.710938 69.597656 46.238281 C 68.660156 47.703125 69.839844 49.644531 71.484375 49.339844 " fill-opacity="1" fill-rule="nonzero"/><path fill="#38b6ff" d="M 80.058594 65.476562 C 81.761719 66.761719 83.65625 65.203125 83.320312 63.378906 C 83.117188 62.289062 82.039062 61.292969 80.648438 61.578125 C 78.964844 62.136719 78.621094 64.394531 80.058594 65.476562 " fill-opacity="1" fill-rule="nonzero"/><path fill="#38b6ff" d="M 41.925781 22.390625 C 42.078125 22.4375 43.144531 21.726562 43.59375 21.417969 C 43.613281 21.40625 45.480469 20.125 45.535156 19.925781 C 45.171875 19.835938 41.902344 22.074219 41.925781 22.390625 " fill-opacity="1" fill-rule="nonzero"/><path fill="#38b6ff" d="M 53.195312 24.5 C 52.449219 24.664062 51.308594 26.394531 51.601562 27.164062 C 51.859375 27.851562 52.882812 26.964844 53.332031 25.894531 C 53.617188 25.199219 53.621094 24.457031 53.195312 24.5 " fill-opacity="1" fill-rule="nonzero"/><path fill="#38b6ff" d="M 50.773438 20.917969 C 50.257812 20.933594 48.183594 22.882812 48.195312 23.515625 C 48.203125 23.921875 49.132812 23.238281 49.894531 22.40625 C 50.34375 21.910156 51.066406 20.96875 50.773438 20.917969 " fill-opacity="1" fill-rule="nonzero"/><path fill="#38b6ff" d="M 80.195312 132.394531 C 79.683594 132.230469 78.742188 132.089844 78.238281 132.152344 C 78.144531 132.167969 77.992188 132.191406 77.96875 132.265625 C 77.859375 132.605469 80.113281 132.867188 80.527344 132.679688 C 80.691406 132.605469 80.464844 132.484375 80.195312 132.394531 " fill-opacity="1" fill-rule="nonzero"/><path fill="#38b6ff" d="M 35.953125 24.972656 C 35.957031 24.96875 35.964844 24.957031 35.96875 24.949219 C 35.75 25.042969 33.089844 27.480469 32.949219 27.78125 C 33 27.746094 33 27.746094 34.097656 26.722656 C 35.503906 25.414062 35.839844 25.101562 35.953125 24.972656 " fill-opacity="1" fill-rule="nonzero"/><path fill="#38b6ff" d="M 38.160156 23.640625 C 39.890625 22.320312 40.019531 22.167969 40.117188 22.054688 C 39.929688 21.957031 36.957031 24.234375 36.933594 24.492188 C 36.960938 24.496094 37.03125 24.5 38.160156 23.640625 " fill-opacity="1" fill-rule="nonzero"/><path fill="#38b6ff" d="M 49.074219 19.386719 C 49.148438 19.476562 49.605469 19.226562 50.707031 18.488281 C 50.9375 18.332031 52.105469 17.546875 52.15625 17.402344 C 52.15625 17.398438 52.152344 17.394531 52.148438 17.390625 C 51.929688 17.363281 49.117188 19.011719 49.074219 19.386719 " fill-opacity="1" fill-rule="nonzero"/><path fill="#38b6ff" d="M 94.144531 110.292969 C 94.144531 110.273438 94.058594 108.601562 92.210938 109.101562 C 90.082031 109.753906 91.003906 111.453125 91.203125 111.660156 C 91.890625 112.363281 94.046875 111.992188 94.144531 110.292969 " fill-opacity="1" fill-rule="nonzero"/><path fill="#38b6ff" d="M 53.550781 20.898438 C 52.984375 21.007812 51.707031 22.601562 51.773438 23.109375 C 51.828125 23.496094 52.558594 23.078125 53.167969 22.175781 C 53.316406 21.957031 54.03125 20.871094 53.550781 20.898438 " fill-opacity="1" fill-rule="nonzero"/><g clip-path="url(#75604ea41e)"><path fill="#38b6ff" d="M 81.234375 133.132812 C 80.285156 133.09375 79.859375 133.089844 79.550781 133.113281 C 79.386719 133.128906 79.382812 133.140625 79.371094 133.160156 C 79.585938 133.28125 81.570312 133.25 81.859375 133.175781 C 81.839844 133.164062 81.832031 133.160156 81.234375 133.132812 " fill-opacity="1" fill-rule="nonzero"/></g><path fill="#38b6ff" d="M 94.003906 94.714844 C 94.289062 94.925781 95.070312 95.34375 96.179688 94.613281 C 96.546875 94.371094 97.132812 93.808594 96.984375 92.75 C 96.785156 91.363281 95.667969 91.171875 94.769531 91.433594 C 92.964844 92.070312 93.148438 94.074219 94.003906 94.714844 " fill-opacity="1" fill-rule="nonzero"/><path fill="#38b6ff" d="M 91.203125 82.648438 C 92.089844 83.382812 94.5625 82.964844 94.3125 80.585938 C 94.3125 80.5625 93.996094 78.429688 91.917969 78.960938 C 89.699219 79.625 90.460938 82.03125 91.203125 82.648438 " fill-opacity="1" fill-rule="nonzero"/><path fill="#38b6ff" d="M 87.929688 69.898438 C 88.097656 70.015625 89.003906 70.558594 90.03125 69.847656 C 90.484375 69.535156 90.972656 68.949219 90.753906 67.941406 C 90.472656 66.628906 89.535156 66.03125 88.304688 66.386719 C 86.5 67.03125 86.910156 69.203125 87.929688 69.898438 " fill-opacity="1" fill-rule="nonzero"/><path fill="#38b6ff" d="M 76.945312 53.339844 C 77.972656 53.9375 79.8125 53.382812 79.414062 51.539062 C 79.210938 50.582031 78.398438 49.746094 77.246094 49.992188 C 75.433594 50.5 75.90625 52.734375 76.945312 53.339844 " fill-opacity="1" fill-rule="nonzero"/><path fill="#38b6ff" d="M 45.046875 19.296875 C 45.046875 19.292969 45.039062 19.289062 45.035156 19.285156 C 44.738281 19.292969 42.179688 20.855469 41.824219 21.316406 C 41.980469 21.296875 42.347656 21.089844 43.28125 20.5 C 44.601562 19.664062 45 19.394531 45.046875 19.296875 " fill-opacity="1" fill-rule="nonzero"/><path fill="#38b6ff" d="M 84.695312 129.3125 C 84.59375 129.335938 84.429688 129.375 84.308594 129.460938 C 84.007812 129.671875 84.109375 130.109375 84.867188 130.28125 C 85.511719 130.429688 86.398438 130.191406 86.097656 129.707031 C 85.914062 129.410156 85.410156 129.171875 84.695312 129.3125 " fill-opacity="1" fill-rule="nonzero"/><path fill="#38b6ff" d="M 50.992188 19.597656 C 51.234375 19.511719 51.5625 19.34375 52.34375 18.71875 C 52.980469 18.210938 53.710938 17.59375 53.5625 17.558594 C 53.5625 17.558594 53.558594 17.558594 53.558594 17.558594 C 53.238281 17.578125 50.722656 19.335938 50.992188 19.597656 " fill-opacity="1" fill-rule="nonzero"/><path fill="#38b6ff" d="M 47.875 19 C 48.140625 18.925781 48.574219 18.699219 49.523438 18.144531 C 51.125 17.207031 51.140625 17.152344 51.160156 17.101562 C 50.925781 17.066406 48.058594 18.625 47.875 19 " fill-opacity="1" fill-rule="nonzero"/><path fill="#38b6ff" d="M 86.855469 126.320312 C 86.804688 126.332031 86.757812 126.347656 86.710938 126.363281 C 86.070312 126.558594 85.734375 127.210938 86.546875 127.609375 C 87.265625 127.960938 88.472656 127.539062 88.253906 126.855469 C 88.210938 126.726562 87.953125 126.105469 86.855469 126.320312 " fill-opacity="1" fill-rule="nonzero"/><path fill="#38b6ff" d="M 59.183594 29.992188 C 59.539062 30.449219 60.601562 30.304688 60.726562 28.863281 C 60.726562 28.847656 60.71875 27.574219 59.875 27.695312 C 58.910156 27.902344 58.78125 29.472656 59.183594 29.992188 " fill-opacity="1" fill-rule="nonzero"/><path fill="#38b6ff" d="M 62.921875 33.972656 C 62.929688 33.976562 63.472656 34.425781 63.980469 34.070312 C 64.164062 33.941406 64.648438 33.597656 64.59375 32.796875 C 64.589844 32.734375 64.484375 31.308594 63.378906 31.5 C 62.296875 31.753906 62.269531 33.421875 62.921875 33.972656 " fill-opacity="1" fill-rule="nonzero"/><path fill="#38b6ff" d="M 89.882812 122.515625 C 88.804688 122.816406 88.757812 123.660156 89.300781 124.050781 C 89.902344 124.488281 91.390625 124.089844 91.269531 123.140625 C 91.191406 122.5625 90.660156 122.324219 89.882812 122.515625 " fill-opacity="1" fill-rule="nonzero"/><path fill="#38b6ff" d="M 84.273438 57.519531 C 85.101562 58.046875 86.945312 57.695312 86.625 55.816406 C 86.574219 55.507812 85.988281 54.027344 84.472656 54.46875 C 82.722656 55.066406 83.550781 57.058594 84.273438 57.519531 " fill-opacity="1" fill-rule="nonzero"/><path fill="#38b6ff" d="M 96.898438 102.714844 C 95.128906 103.308594 95.582031 104.835938 95.863281 105.195312 C 96.519531 106.035156 98.554688 105.519531 98.660156 103.839844 C 98.675781 103.578125 98.421875 102.269531 96.898438 102.714844 " fill-opacity="1" fill-rule="nonzero"/><path fill="#38b6ff" d="M 39.421875 22.058594 C 40.828125 21.027344 40.828125 21.027344 40.914062 20.953125 C 40.921875 20.941406 40.933594 20.933594 40.9375 20.921875 C 40.710938 21.015625 38.6875 22.523438 38.53125 22.714844 C 38.847656 22.519531 39.125 22.277344 39.421875 22.058594 " fill-opacity="1" fill-rule="nonzero"/><g clip-path="url(#5518270ffe)"><path fill="#38b6ff" d="M 50.527344 16.742188 C 50.421875 16.683594 47.847656 17.941406 47.546875 18.273438 C 47.628906 18.300781 48.023438 18.105469 48.933594 17.632812 C 50.207031 16.96875 50.492188 16.808594 50.527344 16.742188 " fill-opacity="1" fill-rule="nonzero"/></g><path fill="#38b6ff" d="M 84.644531 131.980469 C 85.070312 131.921875 85.15625 131.808594 84.910156 131.632812 C 84.90625 131.628906 84.371094 131.296875 83.605469 131.433594 C 83.515625 131.449219 83.324219 131.488281 83.265625 131.570312 C 83.121094 131.765625 83.898438 132.085938 84.644531 131.980469 " fill-opacity="1" fill-rule="nonzero"/><path fill="#38b6ff" d="M 58.085938 25.144531 C 58.175781 24.628906 58.175781 24.03125 57.652344 24.09375 C 56.851562 24.246094 56.535156 25.769531 56.828125 26.144531 C 57.097656 26.5 57.886719 26.246094 58.085938 25.144531 " fill-opacity="1" fill-rule="nonzero"/><path fill="#38b6ff" d="M 95.019531 118.609375 C 95.003906 118.230469 94.820312 117.625 93.730469 117.890625 C 92.136719 118.378906 92.789062 119.484375 92.9375 119.617188 C 93.46875 120.097656 95.054688 119.65625 95.019531 118.609375 " fill-opacity="1" fill-rule="nonzero"/><path fill="#38b6ff" d="M 54.566406 18.578125 C 54.597656 18.546875 54.636719 18.503906 54.667969 18.472656 C 55.402344 17.714844 55.359375 17.628906 55.261719 17.628906 C 54.882812 17.6875 53.421875 19.039062 53.402344 19.351562 C 53.390625 19.488281 53.671875 19.492188 54.566406 18.578125 " fill-opacity="1" fill-rule="nonzero"/><path fill="#38b6ff" d="M 67.832031 37.984375 C 68.519531 38.4375 69.824219 38.007812 69.542969 36.636719 C 69.394531 35.921875 68.929688 35.234375 68.066406 35.445312 C 66.75 35.839844 67.207031 37.570312 67.832031 37.984375 " fill-opacity="1" fill-rule="nonzero"/><path fill="#38b6ff" d="M 73.730469 41.933594 C 74.554688 42.417969 75.804688 41.820312 75.429688 40.554688 C 75.277344 40.039062 74.863281 39.214844 73.824219 39.449219 C 72.484375 39.824219 73.058594 41.539062 73.730469 41.933594 " fill-opacity="1" fill-rule="nonzero"/><path fill="#38b6ff" d="M 95.722656 73.996094 C 96.460938 74.671875 98.351562 74.449219 98.1875 72.324219 C 98.140625 71.726562 97.414062 71.238281 97.40625 71.234375 C 96.941406 70.945312 96.5 71.0625 96.265625 71.128906 C 94.636719 71.664062 95.097656 73.425781 95.722656 73.996094 " fill-opacity="1" fill-rule="nonzero"/><path fill="#38b6ff" d="M 83.628906 132.640625 C 83.5625 132.652344 83.429688 132.675781 83.433594 132.707031 C 83.4375 132.757812 83.746094 132.8125 84.238281 132.816406 C 84.480469 132.816406 85.050781 132.785156 85.078125 132.722656 C 85.0625 132.707031 85.035156 132.691406 84.84375 132.660156 C 84.835938 132.660156 84.15625 132.5625 83.628906 132.640625 " fill-opacity="1" fill-rule="nonzero"/><path fill="#38b6ff" d="M 55.777344 22.386719 C 55.808594 22.480469 55.917969 22.671875 56.214844 22.453125 C 56.382812 22.332031 56.625 22.109375 56.828125 21.609375 C 56.972656 21.25 57.160156 20.652344 56.785156 20.679688 C 56.289062 20.757812 55.636719 21.988281 55.777344 22.386719 " fill-opacity="1" fill-rule="nonzero"/><path fill="#38b6ff" d="M 98.9375 86.691406 C 99.34375 86.976562 100.152344 86.992188 100.4375 86.792969 C 100.703125 86.609375 101.511719 86.042969 101.347656 85.011719 C 101.214844 84.183594 100.601562 83.496094 99.53125 83.839844 C 97.84375 84.460938 98.332031 86.269531 98.9375 86.691406 " fill-opacity="1" fill-rule="nonzero"/><path fill="#38b6ff" d="M 43.753906 19.4375 C 43.765625 19.429688 45.097656 18.652344 45.246094 18.511719 C 45.246094 18.507812 45.246094 18.503906 45.246094 18.496094 C 45.027344 18.535156 43.015625 19.699219 42.75 19.980469 C 42.75 19.984375 42.75 19.988281 42.75 19.992188 C 42.835938 19.96875 43.078125 19.828125 43.753906 19.4375 " fill-opacity="1" fill-rule="nonzero"/><path fill="#38b6ff" d="M 101.8125 95.816406 C 100.554688 96.230469 100.4375 97.527344 101.03125 98.121094 C 101.691406 98.78125 103.261719 98.074219 103.242188 96.859375 C 103.234375 96.617188 103.148438 95.4375 101.8125 95.816406 " fill-opacity="1" fill-rule="nonzero"/><path fill="#38b6ff" d="M 99.292969 113.269531 C 99.296875 112.957031 99.191406 112.261719 98.148438 112.535156 C 96.929688 112.902344 96.960938 113.9375 97.300781 114.296875 C 97.816406 114.839844 99.285156 114.246094 99.292969 113.269531 " fill-opacity="1" fill-rule="nonzero"/><path fill="#38b6ff" d="M 92.078125 61.515625 C 92.9375 62.0625 94.417969 61.394531 94.042969 60.050781 C 93.945312 59.703125 93.535156 58.59375 92.265625 58.949219 C 90.839844 59.421875 91.375 61.070312 92.078125 61.515625 " fill-opacity="1" fill-rule="nonzero"/><path fill="#38b6ff" d="M 80.414062 45.78125 C 81.03125 46.171875 82.375 45.925781 82.050781 44.558594 C 82.046875 44.546875 81.667969 43.1875 80.457031 43.542969 C 79.125 43.996094 79.941406 45.476562 80.414062 45.78125 " fill-opacity="1" fill-rule="nonzero"/><path fill="#38b6ff" d="M 56.960938 18.351562 C 57.019531 18.273438 57.511719 17.589844 57.269531 17.589844 C 56.914062 17.664062 56.164062 18.6875 56.175781 18.914062 C 56.175781 18.917969 56.28125 19.269531 56.960938 18.351562 " fill-opacity="1" fill-rule="nonzero"/><path fill="#38b6ff" d="M 89.144531 130.453125 C 89.105469 130.460938 89.070312 130.472656 89.03125 130.484375 C 88.691406 130.597656 88.777344 130.773438 88.941406 130.859375 C 89.210938 130.992188 89.875 130.882812 89.78125 130.59375 C 89.78125 130.589844 89.636719 130.351562 89.144531 130.453125 " fill-opacity="1" fill-rule="nonzero"/><path fill="#38b6ff" d="M 102.890625 106.5625 C 102.242188 106.800781 101.785156 107.605469 102.207031 108.101562 C 102.636719 108.609375 103.792969 108.136719 103.875 107.226562 C 103.9375 106.53125 103.425781 106.394531 102.890625 106.5625 " fill-opacity="1" fill-rule="nonzero"/><path fill="#38b6ff" d="M 87.847656 49.5625 C 88.632812 49.953125 89.511719 49.335938 89.144531 48.386719 C 88.90625 47.765625 88.355469 47.476562 87.777344 47.660156 C 86.726562 48.054688 87.28125 49.28125 87.847656 49.5625 " fill-opacity="1" fill-rule="nonzero"/><path fill="#38b6ff" d="M 91.382812 128.039062 C 90.882812 128.164062 90.800781 128.480469 90.964844 128.640625 C 91.253906 128.921875 92.050781 128.671875 92.03125 128.308594 C 92.023438 128.15625 91.875 127.929688 91.382812 128.039062 " fill-opacity="1" fill-rule="nonzero"/><path fill="#38b6ff" d="M 103.722656 78.035156 C 104.214844 78.398438 105.371094 77.980469 105.199219 76.921875 C 105.117188 76.390625 104.839844 75.8125 104.011719 76.070312 C 102.933594 76.453125 103.261719 77.6875 103.722656 78.035156 " fill-opacity="1" fill-rule="nonzero"/><path fill="#38b6ff" d="M 106.65625 88.523438 C 105.617188 88.894531 105.859375 90.027344 106.210938 90.28125 C 106.214844 90.285156 106.664062 90.585938 107.21875 90.179688 C 107.339844 90.085938 107.71875 89.808594 107.660156 89.210938 C 107.625 88.847656 107.449219 88.277344 106.65625 88.523438 " fill-opacity="1" fill-rule="nonzero"/><path fill="#38b6ff" d="M 94.492188 124.777344 C 93.722656 125.007812 94.023438 125.527344 94.027344 125.53125 C 94.226562 125.78125 95.078125 125.589844 95.125 125.085938 C 95.136719 124.9375 95.105469 124.613281 94.492188 124.777344 " fill-opacity="1" fill-rule="nonzero"/><path fill="#38b6ff" d="M 70.679688 31.65625 C 71.019531 31.851562 71.734375 31.65625 71.496094 30.910156 C 71.421875 30.675781 71.183594 30.136719 70.636719 30.285156 C 69.890625 30.523438 70.347656 31.472656 70.679688 31.65625 " fill-opacity="1" fill-rule="nonzero"/><path fill="#38b6ff" d="M 88.527344 131.976562 C 88.460938 131.945312 88.277344 131.878906 87.953125 131.945312 C 87.898438 131.957031 87.789062 131.980469 87.769531 132.015625 C 87.71875 132.109375 88.21875 132.164062 88.5 132.070312 C 88.589844 132.039062 88.597656 132.007812 88.527344 131.976562 " fill-opacity="1" fill-rule="nonzero"/><path fill="#38b6ff" d="M 65.855469 28.121094 C 66.101562 28.328125 66.777344 28.308594 66.679688 27.492188 C 66.679688 27.484375 66.546875 26.6875 65.949219 26.828125 C 65.363281 27.003906 65.574219 27.882812 65.855469 28.121094 " fill-opacity="1" fill-rule="nonzero"/><path fill="#38b6ff" d="M 60.578125 20.941406 C 60.609375 20.753906 60.648438 20.320312 60.355469 20.359375 C 59.980469 20.441406 59.894531 21.207031 60.039062 21.378906 C 60.171875 21.535156 60.5 21.4375 60.578125 20.941406 " fill-opacity="1" fill-rule="nonzero"/><path fill="#38b6ff" d="M 62.308594 24.703125 C 62.382812 24.765625 62.582031 24.890625 62.8125 24.679688 C 62.910156 24.59375 63.019531 24.417969 62.992188 24.085938 C 62.980469 23.925781 62.90625 23.40625 62.503906 23.496094 C 61.976562 23.644531 62.078125 24.511719 62.308594 24.703125 " fill-opacity="1" fill-rule="nonzero"/><path fill="#38b6ff" d="M 100.097656 65.375 C 100.519531 65.625 101.65625 65.429688 101.40625 64.261719 C 101.402344 64.253906 101.144531 63.257812 100.214844 63.542969 C 99.160156 63.921875 99.664062 65.117188 100.097656 65.375 " fill-opacity="1" fill-rule="nonzero"/><path fill="#38b6ff" d="M 76.554688 35.144531 C 76.960938 35.296875 77.066406 35.179688 77.203125 35.027344 C 77.273438 34.953125 77.414062 34.738281 77.257812 34.367188 C 77.089844 33.960938 76.71875 33.746094 76.355469 33.851562 C 76.339844 33.859375 76.316406 33.863281 76.296875 33.871094 C 75.816406 34.074219 75.992188 34.933594 76.554688 35.144531 " fill-opacity="1" fill-rule="nonzero"/><path fill="#38b6ff" d="M 98.445312 120.621094 C 97.902344 120.785156 97.738281 121.230469 97.890625 121.453125 C 98.03125 121.660156 98.460938 121.554688 98.464844 121.554688 C 98.46875 121.550781 98.917969 121.3125 98.980469 121.007812 C 99.011719 120.863281 98.980469 120.480469 98.445312 120.621094 " fill-opacity="1" fill-rule="nonzero"/><path fill="#38b6ff" d="M 102.921875 115.738281 C 102.375 115.929688 102.414062 116.398438 102.484375 116.496094 C 102.640625 116.703125 103.257812 116.511719 103.351562 116.074219 C 103.371094 115.988281 103.4375 115.574219 102.921875 115.738281 " fill-opacity="1" fill-rule="nonzero"/><g clip-path="url(#a906391157)"><path fill="#38b6ff" d="M 107.894531 100.019531 C 107.339844 100.21875 107.222656 100.882812 107.472656 101.160156 C 107.746094 101.460938 108.539062 101.074219 108.5625 100.492188 C 108.574219 100.230469 108.5 99.824219 107.894531 100.019531 " fill-opacity="1" fill-rule="nonzero"/></g><path fill="#38b6ff" d="M 95.648438 53.1875 C 96.050781 53.386719 96.773438 53.070312 96.511719 52.394531 C 96.410156 52.132812 96.160156 51.71875 95.628906 51.882812 C 94.851562 52.160156 95.308594 53.015625 95.648438 53.1875 " fill-opacity="1" fill-rule="nonzero"/><path fill="#38b6ff" d="M 83.203125 38.523438 C 83.234375 38.53125 83.488281 38.628906 83.660156 38.460938 C 83.800781 38.328125 83.832031 38.167969 83.757812 37.988281 C 83.757812 37.984375 83.53125 37.445312 83.066406 37.570312 C 83.042969 37.578125 83.023438 37.585938 83 37.597656 C 82.566406 37.800781 82.878906 38.394531 83.203125 38.523438 " fill-opacity="1" fill-rule="nonzero"/><g fill="#545454" fill-opacity="1"><g transform="translate(131.81226, 46.264903)"><g><path d="M 15.65625 -9.796875 L 19.015625 -9.796875 L 19.015625 -2.15625 C 18.023438 -1.375 16.875 -0.769531 15.5625 -0.34375 C 14.25 0.0703125 12.898438 0.28125 11.515625 0.28125 C 9.566406 0.28125 7.804688 -0.140625 6.234375 -0.984375 C 4.671875 -1.835938 3.441406 -3.007812 2.546875 -4.5 C 1.648438 -6 1.203125 -7.691406 1.203125 -9.578125 C 1.203125 -11.453125 1.648438 -13.132812 2.546875 -14.625 C 3.441406 -16.125 4.675781 -17.296875 6.25 -18.140625 C 7.832031 -18.992188 9.609375 -19.421875 11.578125 -19.421875 C 13.179688 -19.421875 14.640625 -19.15625 15.953125 -18.625 C 17.265625 -18.101562 18.367188 -17.332031 19.265625 -16.3125 L 17.015625 -14.125 C 15.554688 -15.582031 13.796875 -16.3125 11.734375 -16.3125 C 10.390625 -16.3125 9.191406 -16.023438 8.140625 -15.453125 C 7.085938 -14.890625 6.265625 -14.097656 5.671875 -13.078125 C 5.078125 -12.054688 4.78125 -10.890625 4.78125 -9.578125 C 4.78125 -8.296875 5.078125 -7.144531 5.671875 -6.125 C 6.265625 -5.101562 7.085938 -4.300781 8.140625 -3.71875 C 9.191406 -3.132812 10.378906 -2.84375 11.703125 -2.84375 C 13.203125 -2.84375 14.519531 -3.171875 15.65625 -3.828125 Z M 15.65625 -9.796875 "/></g></g></g><g fill="#545454" fill-opacity="1"><g transform="translate(152.936056, 46.264903)"><g><path d="M 2.578125 -19.15625 L 6.125 -19.15625 L 6.125 -3.015625 L 16.140625 -3.015625 L 16.140625 0 L 2.578125 0 Z M 2.578125 -19.15625 "/></g></g></g><g fill="#545454" fill-opacity="1"><g transform="translate(169.326145, 46.264903)"><g><path d="M 11.515625 0.28125 C 9.566406 0.28125 7.804688 -0.140625 6.234375 -0.984375 C 4.671875 -1.835938 3.441406 -3.015625 2.546875 -4.515625 C 1.648438 -6.023438 1.203125 -7.710938 1.203125 -9.578125 C 1.203125 -11.429688 1.648438 -13.109375 2.546875 -14.609375 C 3.441406 -16.117188 4.671875 -17.296875 6.234375 -18.140625 C 7.804688 -18.992188 9.566406 -19.421875 11.515625 -19.421875 C 13.472656 -19.421875 15.234375 -18.992188 16.796875 -18.140625 C 18.367188 -17.296875 19.597656 -16.125 20.484375 -14.625 C 21.378906 -13.132812 21.828125 -11.453125 21.828125 -9.578125 C 21.828125 -7.691406 21.378906 -6 20.484375 -4.5 C 19.597656 -3.007812 18.367188 -1.835938 16.796875 -0.984375 C 15.234375 -0.140625 13.472656 0.28125 11.515625 0.28125 Z M 11.515625 -2.84375 C 12.796875 -2.84375 13.945312 -3.128906 14.96875 -3.703125 C 15.988281 -4.273438 16.789062 -5.078125 17.375 -6.109375 C 17.957031 -7.140625 18.25 -8.296875 18.25 -9.578125 C 18.25 -10.847656 17.957031 -12 17.375 -13.03125 C 16.789062 -14.0625 15.988281 -14.863281 14.96875 -15.4375 C 13.945312 -16.019531 12.796875 -16.3125 11.515625 -16.3125 C 10.242188 -16.3125 9.09375 -16.019531 8.0625 -15.4375 C 7.039062 -14.863281 6.238281 -14.0625 5.65625 -13.03125 C 5.070312 -12 4.78125 -10.847656 4.78125 -9.578125 C 4.78125 -8.296875 5.070312 -7.140625 5.65625 -6.109375 C 6.238281 -5.078125 7.039062 -4.273438 8.0625 -3.703125 C 9.09375 -3.128906 10.242188 -2.84375 11.515625 -2.84375 Z M 11.515625 -2.84375 "/></g></g></g><g fill="#545454" fill-opacity="1"><g transform="translate(192.365309, 46.264903)"><g><path d="M 16.140625 -9.953125 C 17.203125 -9.609375 18.039062 -9.03125 18.65625 -8.21875 C 19.28125 -7.40625 19.59375 -6.398438 19.59375 -5.203125 C 19.59375 -3.535156 18.953125 -2.25 17.671875 -1.34375 C 16.398438 -0.445312 14.539062 0 12.09375 0 L 2.578125 0 L 2.578125 -19.15625 L 11.546875 -19.15625 C 13.804688 -19.15625 15.546875 -18.710938 16.765625 -17.828125 C 17.992188 -16.941406 18.609375 -15.722656 18.609375 -14.171875 C 18.609375 -13.222656 18.390625 -12.382812 17.953125 -11.65625 C 17.515625 -10.925781 16.910156 -10.359375 16.140625 -9.953125 Z M 6.125 -16.359375 L 6.125 -11.078125 L 11.15625 -11.078125 C 12.394531 -11.078125 13.347656 -11.300781 14.015625 -11.75 C 14.679688 -12.195312 15.015625 -12.847656 15.015625 -13.703125 C 15.015625 -14.578125 14.679688 -15.238281 14.015625 -15.6875 C 13.347656 -16.132812 12.394531 -16.359375 11.15625 -16.359375 Z M 11.875 -2.796875 C 14.625 -2.796875 16 -3.710938 16 -5.546875 C 16 -7.390625 14.625 -8.3125 11.875 -8.3125 L 6.125 -8.3125 L 6.125 -2.796875 Z M 11.875 -2.796875 "/></g></g></g><g fill="#545454" fill-opacity="1"><g transform="translate(213.188119, 46.264903)"><g><path d="M 15 -4.4375 L 5.421875 -4.4375 L 3.53125 0 L -0.140625 0 L 8.484375 -19.15625 L 11.984375 -19.15625 L 20.625 0 L 16.90625 0 Z M 13.8125 -7.21875 L 10.203125 -15.59375 L 6.625 -7.21875 Z M 13.8125 -7.21875 "/></g></g></g><g fill="#545454" fill-opacity="1"><g transform="translate(233.682571, 46.264903)"><g><path d="M 2.578125 -19.15625 L 6.125 -19.15625 L 6.125 -3.015625 L 16.140625 -3.015625 L 16.140625 0 L 2.578125 0 Z M 2.578125 -19.15625 "/></g></g></g><g fill="#545454" fill-opacity="1"><g transform="translate(250.075141, 46.264903)"><g/></g></g><g fill="#545454" fill-opacity="1"><g transform="translate(131.81226, 84.031029)"><g><path d="M 19.59375 -19.15625 L 19.59375 0 L 16.65625 0 L 6.09375 -12.96875 L 6.09375 0 L 2.578125 0 L 2.578125 -19.15625 L 5.5 -19.15625 L 16.0625 -6.1875 L 16.0625 -19.15625 Z M 19.59375 -19.15625 "/></g></g></g><g fill="#545454" fill-opacity="1"><g transform="translate(153.975827, 84.031029)"><g><path d="M 11.515625 0.28125 C 9.566406 0.28125 7.804688 -0.140625 6.234375 -0.984375 C 4.671875 -1.835938 3.441406 -3.015625 2.546875 -4.515625 C 1.648438 -6.023438 1.203125 -7.710938 1.203125 -9.578125 C 1.203125 -11.429688 1.648438 -13.109375 2.546875 -14.609375 C 3.441406 -16.117188 4.671875 -17.296875 6.234375 -18.140625 C 7.804688 -18.992188 9.566406 -19.421875 11.515625 -19.421875 C 13.472656 -19.421875 15.234375 -18.992188 16.796875 -18.140625 C 18.367188 -17.296875 19.597656 -16.125 20.484375 -14.625 C 21.378906 -13.132812 21.828125 -11.453125 21.828125 -9.578125 C 21.828125 -7.691406 21.378906 -6 20.484375 -4.5 C 19.597656 -3.007812 18.367188 -1.835938 16.796875 -0.984375 C 15.234375 -0.140625 13.472656 0.28125 11.515625 0.28125 Z M 11.515625 -2.84375 C 12.796875 -2.84375 13.945312 -3.128906 14.96875 -3.703125 C 15.988281 -4.273438 16.789062 -5.078125 17.375 -6.109375 C 17.957031 -7.140625 18.25 -8.296875 18.25 -9.578125 C 18.25 -10.847656 17.957031 -12 17.375 -13.03125 C 16.789062 -14.0625 15.988281 -14.863281 14.96875 -15.4375 C 13.945312 -16.019531 12.796875 -16.3125 11.515625 -16.3125 C 10.242188 -16.3125 9.09375 -16.019531 8.0625 -15.4375 C 7.039062 -14.863281 6.238281 -14.0625 5.65625 -13.03125 C 5.070312 -12 4.78125 -10.847656 4.78125 -9.578125 C 4.78125 -8.296875 5.070312 -7.140625 5.65625 -6.109375 C 6.238281 -5.078125 7.039062 -4.273438 8.0625 -3.703125 C 9.09375 -3.128906 10.242188 -2.84375 11.515625 -2.84375 Z M 11.515625 -2.84375 "/></g></g></g><g fill="#545454" fill-opacity="1"><g transform="translate(177.014991, 84.031029)"><g><path d="M 6.453125 -16.140625 L 0.109375 -16.140625 L 0.109375 -19.15625 L 16.359375 -19.15625 L 16.359375 -16.140625 L 10.015625 -16.140625 L 10.015625 0 L 6.453125 0 Z M 6.453125 -16.140625 "/></g></g></g><g fill="#545454" fill-opacity="1"><g transform="translate(193.487173, 84.031029)"><g><path d="M 2.578125 -19.15625 L 6.125 -19.15625 L 6.125 0 L 2.578125 0 Z M 2.578125 -19.15625 "/></g></g></g><g fill="#545454" fill-opacity="1"><g transform="translate(202.215789, 84.031029)"><g><path d="M 6.125 -16.171875 L 6.125 -10.34375 L 15.375 -10.34375 L 15.375 -7.328125 L 6.125 -7.328125 L 6.125 0 L 2.578125 0 L 2.578125 -19.15625 L 16.546875 -19.15625 L 16.546875 -16.171875 Z M 6.125 -16.171875 "/></g></g></g><g fill="#545454" fill-opacity="1"><g transform="translate(219.645649, 84.031029)"><g><path d="M 2.578125 -19.15625 L 6.125 -19.15625 L 6.125 0 L 2.578125 0 Z M 2.578125 -19.15625 "/></g></g></g><g fill="#545454" fill-opacity="1"><g transform="translate(228.374265, 84.031029)"><g><path d="M 11.4375 0.28125 C 9.5 0.28125 7.75 -0.140625 6.1875 -0.984375 C 4.632812 -1.835938 3.414062 -3.007812 2.53125 -4.5 C 1.644531 -6 1.203125 -7.691406 1.203125 -9.578125 C 1.203125 -11.453125 1.648438 -13.132812 2.546875 -14.625 C 3.441406 -16.125 4.664062 -17.296875 6.21875 -18.140625 C 7.78125 -18.992188 9.53125 -19.421875 11.46875 -19.421875 C 13.03125 -19.421875 14.457031 -19.144531 15.75 -18.59375 C 17.050781 -18.050781 18.148438 -17.257812 19.046875 -16.21875 L 16.75 -14.0625 C 15.363281 -15.5625 13.65625 -16.3125 11.625 -16.3125 C 10.3125 -16.3125 9.132812 -16.019531 8.09375 -15.4375 C 7.050781 -14.863281 6.238281 -14.066406 5.65625 -13.046875 C 5.070312 -12.023438 4.78125 -10.867188 4.78125 -9.578125 C 4.78125 -8.285156 5.070312 -7.125 5.65625 -6.09375 C 6.238281 -5.070312 7.050781 -4.273438 8.09375 -3.703125 C 9.132812 -3.128906 10.3125 -2.84375 11.625 -2.84375 C 13.65625 -2.84375 15.363281 -3.597656 16.75 -5.109375 L 19.046875 -2.921875 C 18.148438 -1.890625 17.050781 -1.097656 15.75 -0.546875 C 14.445312 0.00390625 13.007812 0.28125 11.4375 0.28125 Z M 11.4375 0.28125 "/></g></g></g><g fill="#545454" fill-opacity="1"><g transform="translate(248.266745, 84.031029)"><g><path d="M 15 -4.4375 L 5.421875 -4.4375 L 3.53125 0 L -0.140625 0 L 8.484375 -19.15625 L 11.984375 -19.15625 L 20.625 0 L 16.90625 0 Z M 13.8125 -7.21875 L 10.203125 -15.59375 L 6.625 -7.21875 Z M 13.8125 -7.21875 "/></g></g></g><g fill="#545454" fill-opacity="1"><g transform="translate(268.761197, 84.031029)"><g><path d="M 6.453125 -16.140625 L 0.109375 -16.140625 L 0.109375 -19.15625 L 16.359375 -19.15625 L 16.359375 -16.140625 L 10.015625 -16.140625 L 10.015625 0 L 6.453125 0 Z M 6.453125 -16.140625 "/></g></g></g><g fill="#545454" fill-opacity="1"><g transform="translate(285.233379, 84.031029)"><g><path d="M 2.578125 -19.15625 L 6.125 -19.15625 L 6.125 0 L 2.578125 0 Z M 2.578125 -19.15625 "/></g></g></g><g fill="#545454" fill-opacity="1"><g transform="translate(293.961995, 84.031029)"><g><path d="M 11.515625 0.28125 C 9.566406 0.28125 7.804688 -0.140625 6.234375 -0.984375 C 4.671875 -1.835938 3.441406 -3.015625 2.546875 -4.515625 C 1.648438 -6.023438 1.203125 -7.710938 1.203125 -9.578125 C 1.203125 -11.429688 1.648438 -13.109375 2.546875 -14.609375 C 3.441406 -16.117188 4.671875 -17.296875 6.234375 -18.140625 C 7.804688 -18.992188 9.566406 -19.421875 11.515625 -19.421875 C 13.472656 -19.421875 15.234375 -18.992188 16.796875 -18.140625 C 18.367188 -17.296875 19.597656 -16.125 20.484375 -14.625 C 21.378906 -13.132812 21.828125 -11.453125 21.828125 -9.578125 C 21.828125 -7.691406 21.378906 -6 20.484375 -4.5 C 19.597656 -3.007812 18.367188 -1.835938 16.796875 -0.984375 C 15.234375 -0.140625 13.472656 0.28125 11.515625 0.28125 Z M 11.515625 -2.84375 C 12.796875 -2.84375 13.945312 -3.128906 14.96875 -3.703125 C 15.988281 -4.273438 16.789062 -5.078125 17.375 -6.109375 C 17.957031 -7.140625 18.25 -8.296875 18.25 -9.578125 C 18.25 -10.847656 17.957031 -12 17.375 -13.03125 C 16.789062 -14.0625 15.988281 -14.863281 14.96875 -15.4375 C 13.945312 -16.019531 12.796875 -16.3125 11.515625 -16.3125 C 10.242188 -16.3125 9.09375 -16.019531 8.0625 -15.4375 C 7.039062 -14.863281 6.238281 -14.0625 5.65625 -13.03125 C 5.070312 -12 4.78125 -10.847656 4.78125 -9.578125 C 4.78125 -8.296875 5.070312 -7.140625 5.65625 -6.109375 C 6.238281 -5.078125 7.039062 -4.273438 8.0625 -3.703125 C 9.09375 -3.128906 10.242188 -2.84375 11.515625 -2.84375 Z M 11.515625 -2.84375 "/></g></g></g><g fill="#545454" fill-opacity="1"><g transform="translate(317.001159, 84.031029)"><g><path d="M 19.59375 -19.15625 L 19.59375 0 L 16.65625 0 L 6.09375 -12.96875 L 6.09375 0 L 2.578125 0 L 2.578125 -19.15625 L 5.5 -19.15625 L 16.0625 -6.1875 L 16.0625 -19.15625 Z M 19.59375 -19.15625 "/></g></g></g><g fill="#545454" fill-opacity="1"><g transform="translate(131.81226, 121.797156)"><g><path d="M 8.515625 0.28125 C 7.035156 0.28125 5.601562 0.0703125 4.21875 -0.34375 C 2.84375 -0.769531 1.753906 -1.332031 0.953125 -2.03125 L 2.1875 -4.78125 C 2.96875 -4.164062 3.925781 -3.660156 5.0625 -3.265625 C 6.207031 -2.878906 7.359375 -2.6875 8.515625 -2.6875 C 9.929688 -2.6875 10.988281 -2.910156 11.6875 -3.359375 C 12.394531 -3.816406 12.75 -4.421875 12.75 -5.171875 C 12.75 -5.710938 12.550781 -6.160156 12.15625 -6.515625 C 11.769531 -6.878906 11.273438 -7.160156 10.671875 -7.359375 C 10.066406 -7.554688 9.242188 -7.785156 8.203125 -8.046875 C 6.742188 -8.390625 5.5625 -8.734375 4.65625 -9.078125 C 3.757812 -9.429688 2.988281 -9.972656 2.34375 -10.703125 C 1.695312 -11.441406 1.375 -12.441406 1.375 -13.703125 C 1.375 -14.765625 1.660156 -15.726562 2.234375 -16.59375 C 2.804688 -17.457031 3.671875 -18.144531 4.828125 -18.65625 C 5.984375 -19.164062 7.398438 -19.421875 9.078125 -19.421875 C 10.242188 -19.421875 11.394531 -19.273438 12.53125 -18.984375 C 13.664062 -18.691406 14.640625 -18.273438 15.453125 -17.734375 L 14.34375 -14.96875 C 13.5 -15.457031 12.617188 -15.828125 11.703125 -16.078125 C 10.796875 -16.335938 9.914062 -16.46875 9.0625 -16.46875 C 7.65625 -16.46875 6.609375 -16.226562 5.921875 -15.75 C 5.234375 -15.28125 4.890625 -14.65625 4.890625 -13.875 C 4.890625 -13.320312 5.085938 -12.875 5.484375 -12.53125 C 5.878906 -12.1875 6.375 -11.910156 6.96875 -11.703125 C 7.570312 -11.503906 8.394531 -11.28125 9.4375 -11.03125 C 10.863281 -10.695312 12.03125 -10.351562 12.9375 -10 C 13.851562 -9.644531 14.632812 -9.101562 15.28125 -8.375 C 15.925781 -7.644531 16.25 -6.660156 16.25 -5.421875 C 16.25 -4.359375 15.960938 -3.398438 15.390625 -2.546875 C 14.816406 -1.691406 13.945312 -1.003906 12.78125 -0.484375 C 11.613281 0.0234375 10.191406 0.28125 8.515625 0.28125 Z M 8.515625 0.28125 "/></g></g></g><g fill="#545454" fill-opacity="1"><g transform="translate(149.023227, 121.797156)"><g><path d="M 16.9375 -2.984375 L 16.9375 0 L 2.578125 0 L 2.578125 -19.15625 L 16.546875 -19.15625 L 16.546875 -16.171875 L 6.125 -16.171875 L 6.125 -11.1875 L 15.375 -11.1875 L 15.375 -8.265625 L 6.125 -8.265625 L 6.125 -2.984375 Z M 16.9375 -2.984375 "/></g></g></g><g fill="#545454" fill-opacity="1"><g transform="translate(167.356056, 121.797156)"><g><path d="M 15.109375 0 L 11.1875 -5.609375 C 11.019531 -5.585938 10.773438 -5.578125 10.453125 -5.578125 L 6.125 -5.578125 L 6.125 0 L 2.578125 0 L 2.578125 -19.15625 L 10.453125 -19.15625 C 12.109375 -19.15625 13.550781 -18.878906 14.78125 -18.328125 C 16.019531 -17.785156 16.96875 -17.003906 17.625 -15.984375 C 18.28125 -14.960938 18.609375 -13.75 18.609375 -12.34375 C 18.609375 -10.894531 18.253906 -9.648438 17.546875 -8.609375 C 16.847656 -7.578125 15.84375 -6.804688 14.53125 -6.296875 L 18.9375 0 Z M 15.015625 -12.34375 C 15.015625 -13.5625 14.613281 -14.5 13.8125 -15.15625 C 13.007812 -15.8125 11.832031 -16.140625 10.28125 -16.140625 L 6.125 -16.140625 L 6.125 -8.515625 L 10.28125 -8.515625 C 11.832031 -8.515625 13.007812 -8.84375 13.8125 -9.5 C 14.613281 -10.164062 15.015625 -11.113281 15.015625 -12.34375 Z M 15.015625 -12.34375 "/></g></g></g><g fill="#545454" fill-opacity="1"><g transform="translate(187.357989, 121.797156)"><g><path d="M 20.078125 -19.15625 L 11.734375 0 L 8.234375 0 L -0.140625 -19.15625 L 3.71875 -19.15625 L 10.09375 -4.375 L 16.53125 -19.15625 Z M 20.078125 -19.15625 "/></g></g></g><g fill="#545454" fill-opacity="1"><g transform="translate(207.305201, 121.797156)"><g><path d="M 16.9375 -2.984375 L 16.9375 0 L 2.578125 0 L 2.578125 -19.15625 L 16.546875 -19.15625 L 16.546875 -16.171875 L 6.125 -16.171875 L 6.125 -11.1875 L 15.375 -11.1875 L 15.375 -8.265625 L 6.125 -8.265625 L 6.125 -2.984375 Z M 16.9375 -2.984375 "/></g></g></g><g fill="#545454" fill-opacity="1"><g transform="translate(225.638031, 121.797156)"><g><path d="M 15.109375 0 L 11.1875 -5.609375 C 11.019531 -5.585938 10.773438 -5.578125 10.453125 -5.578125 L 6.125 -5.578125 L 6.125 0 L 2.578125 0 L 2.578125 -19.15625 L 10.453125 -19.15625 C 12.109375 -19.15625 13.550781 -18.878906 14.78125 -18.328125 C 16.019531 -17.785156 16.96875 -17.003906 17.625 -15.984375 C 18.28125 -14.960938 18.609375 -13.75 18.609375 -12.34375 C 18.609375 -10.894531 18.253906 -9.648438 17.546875 -8.609375 C 16.847656 -7.578125 15.84375 -6.804688 14.53125 -6.296875 L 18.9375 0 Z M 15.015625 -12.34375 C 15.015625 -13.5625 14.613281 -14.5 13.8125 -15.15625 C 13.007812 -15.8125 11.832031 -16.140625 10.28125 -16.140625 L 6.125 -16.140625 L 6.125 -8.515625 L 10.28125 -8.515625 C 11.832031 -8.515625 13.007812 -8.84375 13.8125 -9.5 C 14.613281 -10.164062 15.015625 -11.113281 15.015625 -12.34375 Z M 15.015625 -12.34375 "/></g></g></g></svg>